<svg viewBox="0 0 32 32" fill="none" xmlns="http://www.w3.org/2000/svg">
<path d="M9.99923 10.666C11.1039 10.666 11.9995 11.5615 11.9995 12.6662V22.0007C11.9995 23.1055 11.1039 24.001 9.99923 24.001C8.89452 24.001 7.99898 23.1055 7.99898 22.0007V12.6662C7.99898 11.5615 8.89452 10.666 9.99923 10.666Z" fill="currentColor"/>
<path d="M15.3332 7.99899C16.4379 7.99899 17.3335 8.89454 17.3335 9.99924V22.0007C17.3335 23.1055 16.4379 24.001 15.3332 24.001C14.2285 24.001 13.333 23.1055 13.333 22.0007V9.99924C13.333 8.89454 14.2285 7.99899 15.3332 7.99899Z" fill="currentColor"/>
<path d="M19.4835 9.76354C20.5504 9.47779 21.647 10.111 21.933 11.1778L24.6938 21.4824C24.9797 22.5495 24.3466 23.6461 23.2795 23.932C22.2125 24.2178 21.1159 23.5848 20.83 22.5177L18.0692 12.2131C17.7835 11.1461 18.4165 10.0494 19.4835 9.76354Z" fill="currentColor"/>
<path fill-rule="evenodd" clip-rule="evenodd" d="M26.9401 2.67932C28.2852 2.81569 29.335 3.95095 29.335 5.33199V26.668L29.3207 26.9402C29.1934 28.1957 28.1957 29.1934 26.9401 29.3207L26.668 29.335H5.33198C3.95094 29.335 2.81567 28.2852 2.6793 26.9402L2.66498 26.668V5.33199C2.66498 3.85905 3.85903 2.66499 5.33198 2.66499H26.668L26.9401 2.67932ZM5.33198 26.668H26.668V5.33199H5.33198V26.668Z" fill="currentColor"/>
</svg>
