<svg viewBox="0 0 32 32" fill="none" xmlns="http://www.w3.org/2000/svg">
<path fill-rule="evenodd" clip-rule="evenodd" d="M26.668 2.66499C28.1409 2.66499 29.335 3.85905 29.335 5.33199V26.668C29.335 28.1409 28.1409 29.335 26.668 29.335H5.33198C3.85904 29.335 2.66498 28.1409 2.66498 26.668V5.33199C2.66498 3.85905 3.85903 2.66499 5.33198 2.66499H26.668ZM9.99923 10.666C8.89452 10.666 7.99898 11.5615 7.99898 12.6662V22.0007C7.99898 23.1055 8.89452 24.001 9.99923 24.001C11.1039 24.001 11.9995 23.1055 11.9995 22.0007V12.6662C11.9995 11.5615 11.1039 10.666 9.99923 10.666ZM15.3332 7.99899C14.2285 7.99899 13.333 8.89454 13.333 9.99924V22.0007C13.333 23.1055 14.2285 24.001 15.3332 24.001C16.4379 24.001 17.3335 23.1055 17.3335 22.0007V9.99924C17.3335 8.89454 16.4379 7.99899 15.3332 7.99899ZM21.933 11.1778C21.647 10.111 20.5504 9.47779 19.4835 9.76354C18.4165 10.0494 17.7835 11.1461 18.0692 12.2131L20.83 22.5177C21.1159 23.5848 22.2125 24.2178 23.2795 23.932C24.3466 23.6461 24.9797 22.5495 24.6938 21.4824L21.933 11.1778Z" fill="currentColor"/>
</svg>
