<?xml version="1.0" encoding="UTF-8"?>
<svg xmlns="http://www.w3.org/2000/svg" version="1.1" viewBox="0 0 32 32">
  <path fill="currentColor" d="M4,28c-.38,0-.69-.13-.95-.38-.26-.26-.38-.57-.38-.95,0-.38.13-.69.38-.95.26-.26.57-.38.95-.38h24c.38,0,.69.13.95.38.26.26.38.57.38.95s-.13.69-.38.95c-.26.26-.57.38-.95.38H4ZM28,10.67H3.87c-.33,0-.62-.12-.85-.35-.23-.23-.35-.52-.35-.85v-.73c0-.24.06-.46.18-.63.12-.18.28-.32.48-.43L14.8,1.93c.38-.18.78-.27,1.2-.27s.82.09,1.2.27l11.4,5.7c.24.11.43.28.55.5.12.22.18.46.18.7v.5c0,.38-.13.69-.38.95-.26.26-.57.38-.95.38M5.33,21.33v-6.67c0-.38.13-.69.38-.95s.57-.38.95-.38.69.13.95.38c.26.26.38.57.38.95v6.67c0,.38-.13.69-.38.95-.26.26-.57.38-.95.38s-.69-.13-.95-.38-.38-.57-.38-.95M11.56,21.33v-6.67c0-.38.13-.69.38-.95.26-.26.57-.38.95-.38s.69.13.95.38.38.57.38.95v6.67c0,.38-.13.69-.38.95-.26.26-.57.38-.95.38s-.69-.13-.95-.38c-.26-.26-.38-.57-.38-.95M17.78,21.33v-6.67c0-.38.13-.69.38-.95.26-.26.57-.38.95-.38s.69.13.95.38.38.57.38.95v6.67c0,.38-.13.69-.38.95-.26.26-.57.38-.95.38s-.69-.13-.95-.38c-.26-.26-.38-.57-.38-.95M24,21.33v-6.67c0-.38.13-.69.38-.95.26-.26.57-.38.95-.38s.69.13.95.38c.26.26.38.57.38.95v6.67c0,.38-.13.69-.38.95-.26.26-.57.38-.95.38s-.69-.13-.95-.38c-.26-.26-.38-.57-.38-.95"/>
</svg>
