<?xml version="1.0" encoding="UTF-8"?><svg xmlns="http://www.w3.org/2000/svg" width="96" height="96" viewBox="0 0 96 96" fill="none" version="1.2" baseProfile="tiny-ps"><title>3ook.com</title><rect width="96" height="96" fill="#131313"></rect><path d="M66 32C67.1046 32 68 32.8954 68 34V43.1719C67.9999 43.7022 67.7891 44.2109 67.4141 44.5859L65.4141 46.5859C64.6332 47.3669 64.6332 48.6331 65.4141 49.4141L67.4141 51.4141C67.7891 51.7891 67.9999 52.2978 68 52.8281V63.1719C67.9999 63.7022 67.7891 64.2109 67.4141 64.5859L60.5859 71.4141C60.2109 71.7891 59.7022 71.9999 59.1719 72H34C32.8954 72 32 71.1046 32 70V62C32 60.8954 32.8954 60 34 60H38C38.9669 60 39.7748 60.6858 39.9609 61.5977L40.0391 62.4023C40.2252 63.3142 41.0331 64 42 64H58C59.1046 64 60 63.1046 60 62V54C60 52.8954 59.1046 52 58 52H42C40.8954 52 40 51.1046 40 50V46C40 44.8954 40.8954 44 42 44H58C59.1046 44 60 43.1046 60 42V32H66Z" fill="#50E3C2"></path><path d="M58 24C59.1046 24 60 24.8954 60 26V32H34C32.8954 32 32 31.1046 32 30V26C32 24.8954 32.8954 24 34 24H58Z" fill="#50E3C2"></path><path d="M64 43.1716C64 43.702 63.7893 44.2107 63.4142 44.5858L61.4142 46.5858C60.6332 47.3668 60.6332 48.6332 61.4142 49.4142L63.4142 51.4142C63.7893 51.7893 64 52.298 64 52.8284V63.1716C64 63.702 63.7893 64.2107 63.4142 64.5858L56.5858 71.4142C56.2107 71.7893 55.702 72 55.1716 72H30C28.8954 72 28 71.1046 28 70V62C28 60.8954 28.8954 60 30 60H34C35.1046 60 36 60.8954 36 62V62C36 63.1046 36.8954 64 38 64H54C55.1046 64 56 63.1046 56 62V54C56 52.8954 55.1046 52 54 52H38C36.8954 52 36 51.1046 36 50V46C36 44.8954 36.8954 44 38 44H54C55.1046 44 56 43.1046 56 42V32H62C63.1046 32 64 32.8954 64 34V43.1716Z" fill="white"></path><path d="M56 32H30C28.8954 32 28 31.1046 28 30V26C28 24.8954 28.8954 24 30 24H54C55.1046 24 56 24.8954 56 26V32Z" fill="white"></path></svg>