<svg width="1024" height="1024" viewBox="0 0 1024 1024" fill="none" xmlns="http://www.w3.org/2000/svg">
<rect width="1024" height="1024" fill="white"/>
<path d="M707.072 316.953C717.17 316.953 725.357 325.139 725.357 335.238V449.566C725.357 454.417 723.431 459.071 720 462.5L683.417 499.066C676.272 506.207 676.272 517.793 683.417 524.935L720 561.5C723.431 564.93 725.357 569.584 725.357 574.435V699.47C725.357 704.321 723.43 708.976 720 712.405L633.167 799.22C629.738 802.648 625.086 804.571 620.238 804.572H316.952C306.854 804.572 298.667 796.385 298.667 786.286V676.572C298.667 666.473 306.854 658.286 316.952 658.286H377.905C388.004 658.286 396.191 666.473 396.191 676.572V688.762C396.191 698.861 404.377 707.048 414.476 707.048H609.548C619.647 707.048 627.833 698.861 627.833 688.762V579.048C627.833 568.949 619.647 560.762 609.548 560.762H390.119C380.02 560.762 371.833 552.575 371.833 542.476V481.524C371.833 471.425 380.02 463.238 390.119 463.238H609.548C619.647 463.238 627.833 455.051 627.833 444.953V316.953H707.072ZM609.524 219.429C619.623 219.429 627.81 227.616 627.81 237.714V316.953H316.952C306.854 316.953 298.667 308.766 298.667 298.667V237.714C298.667 227.616 306.854 219.429 316.952 219.429H609.524Z" fill="#131313"/>
</svg>
