<svg xmlns="http://www.w3.org/2000/svg" xml:space="preserve" id="Layer_2_1_" x="0" y="0" style="enable-background:new 0 0 1080 1080" version="1.1" viewBox="0 0 1080 1080"><style>.st0{fill:#28646e}.st1{fill-rule:evenodd;clip-rule:evenodd;fill:#fff}</style><path d="M149 0h782c82.3 0 149 66.7 149 149v782c0 82.3-66.7 149-149 149H149c-82.3 0-149-66.7-149-149V149C0 66.7 66.7 0 149 0z" class="st0"/><path d="M505.9 421.2c-9 0-16.2-7.3-16.3-16.2 0-4.7 2-9.1 5.5-12.2 45.9-40.5 66.2-74 69.8-80.1 13.5-23.4 35-35.7 58-32.6 8.9 1.5 14.9 9.8 13.4 18.7-1.4 8.5-9.2 14.5-17.8 13.5-13.3-1.8-22.2 11-25.4 16.5-3.9 7-26.8 44.5-76.5 88.3-3 2.7-6.8 4.1-10.7 4.1M232.3 696.6c-9 0-16.3-7.2-16.3-16.2 0-4.8 2.1-9.4 5.9-12.5 18.9-14.9 38.9-28.2 59.8-40 8-4 17.8-.8 21.8 7.3 4 8 .8 17.8-7.3 21.8-18.7 10.6-36.6 22.6-53.5 35.9-2.9 2.5-6.6 3.9-10.4 3.9" class="st1"/><path d="M640.9 542.5c6.5 6 13.9 3.5 20.8-3.1 47.1-45 97-115.3 113.5-151.9 3.5-7.8 10.7-12.1 18.5-9.1 9.1 3.7 8.9 19.2.7 36.2-21.7 44.8-51.9 94.1-111.6 155.8-5 4.7-5.3 12.5-.6 17.5l.9.9c5.3 4.8 13.8 4.4 21.8-3.7 25.4-25.2 48.7-52.4 69.7-81.3 4.6-6.7 10.1-9.2 15.6-8.1 7.8 1.6 9.1 9.1 6.7 18.1-3.9 14.6-45 68.6-61.3 86.7-44.1 49.3-88.3 76.2-173.3 120.4-29.7 15.4-51.9 30.2-65.3 52.9-12.3 20.6-15.9 27.3-17.1 30-5 10.1-1 22.3 9 27.5 2.7 1.3 5.7 2 8.6 1.9 8.1 0 15.4-4.9 18.5-12.3 0-.3-.6.3 15.6-26.7 12-19.3 29.4-34.7 50-44.1 85-38.9 119.8-69.4 169.2-118.8 22.5-22.5 53.6-70.8 62.1-85 23.8-40 11.3-74.3-10.2-80.1-1.5-.4-2.3-1.9-1.9-3.3.1-.2.1-.4.2-.6 16.6-28.5 24.1-48.1 27.3-63.4 4.2-20.7-1.6-45.9-30.1-51.9-1.5-.4-2.4-1.8-2-3.3v-.1c1.8-6.5 3.5-14.8 4.8-20.2 6-26.9-11.1-51.3-31.5-55.6-13.3-3-27.3-.1-38.3 8-1.6 1-3.7.8-4.9-.6-5.4-6.1-13.1-9.6-21.2-9.9-17.8-.4-35.3 5.1-48.1 32.5-9.2 19.5-22.8 45.9-62.8 90.2-37.2 40.9-88.9 81.1-120.8 102-5.6 3.7-13.4 2.8-12.5-4.7 1.5-11.7 14.3-92 16.5-115.6 3.5-38.4-17.1-55.8-40.2-59-19-2.6-47.9 2.9-63.8 46.3-9.3 25.4-28.6 67.1-45 134.4-11.5 47.3-13.4 102.4-2.9 165.8.7 3.8-.1 7.7-2.1 11-12.6 20.8-31.2 48.1-41.4 72-4.3 9.6-.6 20.9 8.5 26.1 9.6 5.3 21.7 1.8 27-7.8.2-.4.4-.8.6-1.3 6.1-12.9 18.7-37.2 23.7-47.3 6.2-11.8 11.8-24 16.6-36.5 2.1-6.7 3.3-14.4-.5-31.9-6.5-29.6-8.7-85 3.3-133.9 13.1-50.6 29.1-100.5 47.9-149.3 4.8-12 11.7-15.6 18.6-15.1 6.9.5 20 3.9 16.2 28.3-6.7 43.8-16.2 99.4-19.5 118.1-1.6 9.2-3.3 30.6 13.6 40.5 13.2 7.8 27.8 3.4 43.8-7.3 36.2-24.1 98.6-73.3 137.7-117.3 41.2-46.2 54.2-73.7 64.8-98.6 4.8-11.3 17.2-11.3 21.5-10 4.4 1.2 9.7 7.2 6 19.7-9.1 30.3-46.7 99.9-119 165.1-8.2 7.4-7 16.1-2.9 20.7 4.2 4.6 11.7 7.3 19.9 0 50.1-43.6 90.6-97.1 118.8-157.2 5.6-11.8 10.4-23.9 14.3-36.4 3.5-10.3 11.5-14 17-12.8 7.8 1.7 13.1 9.8 10.6 23.1-4 17.1-9.9 33.7-17.7 49.4C732 412.7 688 471.9 640.5 522.7c-5.4 5-5.7 13.4-.6 18.8.6.5.8.7 1 1M347 322.2c2.5-2.2 1.5-5.1.8-7.3-3.5-11.2-23.4-57.9-28.7-67.3-1.4-3.6-5.4-5.5-9-4.1-.2.1-.3.1-.5.2-4.7 1.8-10.5 6.1-19.5 13.9-9 7.8-13.9 13-16.4 17.4-2 3.3-1 7.7 2.3 9.7.1.1.3.2.4.2 8.6 6.4 52.3 32.3 63 37.2 2.1 1 4.9 2.3 7.4 0l.2.1zm-17 30.6c-.6-3.3-3.5-3.9-5.8-4.5-11.4-2.8-61.7-10.1-72.4-10.5-5.4-.2-7.8 2.3-8.4 6-.9 5-.3 12.2 1.8 23.9.9 8 3 15.7 6.4 23 1.8 3.5 6 4.9 9.5 3.1.2-.1.3-.2.5-.3 10-3.9 54.8-28 64.5-34.5 1.9-1.2 4.4-2.8 3.9-6.2zm377.4 382.9c-3.3.2-4.3 3.1-5.1 5.3-3.9 11-16.5 60.2-18.1 70.9-1.2 3.7.9 7.7 4.7 8.9.2 0 .3.1.5.1 7.9 1.5 15.9 1.7 23.9.7 11.7-.8 19-1.8 23.6-3.9 3.6-1.4 5.5-5.4 4.1-9.1-.1-.2-.1-.3-.2-.5-3-10.3-22-57.4-27.5-67.8-1.1-2.1-2.4-4.8-5.7-4.6h-.2zm28.5-22.8c-1.6 3 .4 5.3 1.9 7.1 7.3 9.2 42.8 45.4 51.1 52.3 2.6 2.9 7.1 3.2 10 .6.1-.1.2-.2.4-.3 5.4-5.9 9.8-12.7 13-20 5.5-10.5 8.3-17.2 8.9-22.2.5-3.9-.9-6.9-6.2-8.3-10.3-2.8-60.5-11-72.2-11.7-2.3 0-5.4-.5-6.9 2.5z" class="st1"/></svg>