<svg width="525" height="264" viewBox="0 0 525 264" fill="none" xmlns="http://www.w3.org/2000/svg">
<g filter="url(#filter0_d_7749_1014)">
<path d="M85.44 42.04C124.64 42.04 155.44 56.88 155.44 101.12C155.44 143.68 125.2 163.28 86.28 163.28H66.4C64.72 163.28 63.6 164.4 63.6 166.08V225.44C63.6 229.92 61.08 232.44 56.32 232.44H34.48C29.72 232.44 27.2 229.92 27.2 225.44V49.04C27.2 44.56 29.72 42.04 34.48 42.04H85.44ZM63.6 132.48C63.6 134.16 64.72 135.28 66.4 135.28H83.76C108.12 135.28 119.88 124.64 119.88 101.12C119.88 77.32 107.28 70.04 82.64 70.04H66.4C64.72 70.04 63.6 71.16 63.6 72.84V132.48ZM214.113 236.08C189.753 236.08 181.633 219.84 181.633 194.92V34.2C181.633 29.72 184.153 27.2 188.913 27.2H210.193C214.953 27.2 217.473 29.72 217.473 34.2V194.64C217.473 203.6 220.273 206.12 222.233 206.12H224.753C230.073 205.56 232.873 208.08 232.873 212.56V226.84C232.873 229.64 232.313 231.88 231.193 233C230.353 233.84 229.513 233.84 228.953 234.12C225.593 235.52 220.273 236.08 214.113 236.08ZM296.074 236.08C265.834 236.08 253.234 214.8 253.234 178.96V96.36C253.234 91.88 255.754 89.36 260.514 89.36H281.794C286.554 89.36 289.074 91.88 289.074 96.36V174.48C289.074 198.28 294.674 206.12 307.274 206.12C317.074 206.12 323.514 201.64 333.034 189.04C333.874 187.92 334.154 186.8 334.154 185.4V96.36C334.154 91.88 336.674 89.36 341.434 89.36H362.714C367.474 89.36 369.994 91.88 369.994 96.36V225.44C369.994 229.92 367.474 232.44 362.714 232.44H346.754C342.274 232.44 339.474 229.92 338.914 225.72L338.354 219C338.074 216.76 336.394 216.2 334.994 217.88C324.914 228.52 312.314 236.08 296.074 236.08ZM443.952 236.08C427.712 236.08 410.072 229.36 397.472 220.12C394.112 217.32 393.832 213.96 396.072 210.32L403.632 198.84C406.152 194.92 410.072 194.36 414.272 197.44C424.912 205.56 433.872 210.04 444.792 210.04C457.672 210.04 463.832 203.32 463.832 193.24C463.832 181.2 450.112 176.16 436.672 170.56C418.752 163.28 399.152 152.36 399.152 128.84C399.152 104.2 418.192 85.72 449.832 85.72C466.072 85.72 480.072 91.88 489.872 98.88C493.512 101.4 493.792 105.04 491.272 108.68L483.992 119.32C481.472 123.24 477.552 123.52 473.632 120.72C465.792 115.12 458.512 111.76 450.392 111.76C438.912 111.76 433.312 117.64 433.312 127.16C433.312 138.92 445.072 142.56 458.792 148.16C477.272 155.72 497.712 165.24 497.712 191.28C497.712 215.92 479.232 236.08 443.952 236.08Z" fill="#50E3C2"/>
</g>
<defs>
<filter id="filter0_d_7749_1014" x="-4.95911e-05" y="1.14441e-05" width="524.912" height="263.28" filterUnits="userSpaceOnUse" color-interpolation-filters="sRGB">
<feFlood flood-opacity="0" result="BackgroundImageFix"/>
<feColorMatrix in="SourceAlpha" type="matrix" values="0 0 0 0 0 0 0 0 0 0 0 0 0 0 0 0 0 0 127 0" result="hardAlpha"/>
<feOffset/>
<feGaussianBlur stdDeviation="13.6"/>
<feComposite in2="hardAlpha" operator="out"/>
<feColorMatrix type="matrix" values="0 0 0 0 0.313726 0 0 0 0 0.890196 0 0 0 0 0.760784 0 0 0 0.2 0"/>
<feBlend mode="normal" in2="BackgroundImageFix" result="effect1_dropShadow_7749_1014"/>
<feBlend mode="normal" in="SourceGraphic" in2="effect1_dropShadow_7749_1014" result="shape"/>
</filter>
</defs>
</svg>
