<svg width="51" height="28" viewBox="0 0 51 28" fill="none" xmlns="http://www.w3.org/2000/svg">
<path d="M50.0845 7.84C50.5325 7.84 50.7885 8.096 50.7885 8.512V19.2C50.7885 19.616 50.5325 19.872 50.0845 19.872H49.0925C48.6445 19.872 48.3885 19.616 48.3885 19.2V18.496C48.3885 18.304 48.2605 18.176 48.0685 18.176H34.7245C34.5325 18.176 34.4365 18.272 34.4045 18.464C33.9565 21.664 32.9645 24.96 30.8205 27.552C30.5325 27.936 30.1165 27.904 29.8285 27.52C29.7325 27.392 29.6365 27.296 29.5085 27.168L29.1885 26.848C28.8685 26.56 28.8365 26.272 29.0925 25.92C32.1325 22.08 32.4525 16.64 32.4525 12.448V3.84C32.4525 3.424 32.6765 3.168 33.1245 3.104C38.3085 2.432 44.1325 1.344 47.6525 0.159995C48.0045 0.0319965 48.3245 0.127995 48.5805 0.383996L49.2525 1.088C49.6045 1.44 49.5085 1.856 48.9965 1.984C45.1885 3.168 39.9725 4.16 35.1085 4.8C34.9165 4.832 34.8205 4.928 34.8205 5.12V7.52C34.8205 7.712 34.9485 7.84 35.1405 7.84H50.0845ZM34.6925 15.744C34.6925 15.968 34.8205 16.096 35.0125 16.096H48.0685C48.2605 16.096 48.3885 15.968 48.3885 15.776V10.304C48.3885 10.112 48.2605 9.984 48.0685 9.984H35.1405C34.9485 9.984 34.8205 10.112 34.8205 10.304V12.448C34.8205 13.472 34.8205 14.592 34.6925 15.744Z" fill="black"/>
<path d="M22.816 1.376C23.264 1.376 23.52 1.632 23.52 2.048V2.56C23.52 2.976 23.264 3.232 22.816 3.232H13.856C13.664 3.232 13.536 3.36 13.536 3.552V5.312C13.536 5.504 13.664 5.632 13.856 5.632H21.696C22.144 5.632 22.4 5.888 22.4 6.304V6.656C22.4 7.072 22.144 7.328 21.696 7.328H13.856C13.664 7.328 13.536 7.456 13.536 7.648V9.408C13.536 9.6 13.664 9.728 13.856 9.728H21.888C22.336 9.728 22.592 9.984 22.592 10.4V10.784C22.592 11.2 22.336 11.456 21.888 11.456H13.856C13.664 11.456 13.536 11.584 13.536 11.776V13.632C13.536 13.824 13.664 13.952 13.856 13.952H23.552C24 13.952 24.256 14.208 24.256 14.624V15.296C24.256 15.712 24 15.968 23.552 15.968H16.896C16.672 15.968 16.544 16.128 16.64 16.352C17.152 17.536 17.76 18.688 18.4 19.712C18.528 19.904 18.688 19.904 18.848 19.744C19.712 18.944 20.608 17.92 21.376 17.088C21.664 16.768 22.08 16.704 22.4 17.024L23.008 17.6C23.328 17.888 23.328 18.24 23.008 18.56C22.016 19.456 20.896 20.448 19.872 21.248C19.712 21.376 19.68 21.536 19.808 21.696C21.088 23.232 22.464 24.448 23.904 25.28C24.32 25.504 24.384 25.824 24.096 26.208C23.904 26.432 23.712 26.72 23.552 26.976C23.296 27.36 22.976 27.456 22.56 27.2C19.008 24.96 16.096 20.864 14.496 16.224C14.432 16.064 14.272 15.968 14.112 15.968H13.152C12.96 15.968 12.832 16.096 12.832 16.288V24.512C12.832 24.736 12.96 24.832 13.184 24.768L16.512 23.552C16.96 23.392 17.312 23.584 17.344 24.064V24.128C17.344 24.256 17.376 24.352 17.376 24.448C17.376 24.512 17.376 24.544 17.376 24.576C17.408 24.96 17.248 25.216 16.8 25.408C13.184 26.88 11.968 27.456 11.328 27.808C10.912 28.064 10.624 28 10.464 27.552C10.336 27.232 10.144 26.848 9.984 26.56C9.792 26.208 9.856 25.952 10.08 25.632C10.336 25.248 10.592 24.672 10.592 23.84V16.288C10.592 16.096 10.464 15.968 10.272 15.968H10.016C9.568 15.968 9.312 15.712 9.312 15.296V14.624C9.312 14.208 9.568 13.952 10.016 13.952H10.944C11.136 13.952 11.264 13.824 11.264 13.632V2.048C11.264 1.632 11.52 1.376 11.968 1.376H22.816ZM0.704 21.664C0.256 21.664 0 21.408 0 20.992V6.432C0 6.016 0.256 5.76 0.704 5.76H3.072C3.264 5.76 3.392 5.632 3.392 5.44V0.672001C3.392 0.256001 3.648 0 4.096 0H4.736C5.184 0 5.44 0.256001 5.44 0.672001V5.44C5.44 5.632 5.568 5.76 5.76 5.76H8.32C8.768 5.76 9.024 6.016 9.024 6.432V19.168C9.024 19.936 8.96 20.544 8.384 20.992C8 21.28 7.456 21.344 6.752 21.376C6.304 21.376 6.048 21.184 5.984 20.768C5.984 20.736 5.952 20.672 5.952 20.64C5.92 20.512 5.888 20.384 5.856 20.256L5.824 20.16C5.664 19.68 5.824 19.392 6.336 19.424H7.072C7.136 19.424 7.136 19.392 7.136 19.104V8.096C7.136 7.904 7.008 7.776 6.816 7.776H5.76C5.568 7.776 5.44 7.904 5.44 8.096V27.232C5.44 27.648 5.184 27.904 4.736 27.904H4.096C3.648 27.904 3.392 27.648 3.392 27.232V8.096C3.392 7.904 3.264 7.776 3.072 7.776H2.24C2.048 7.776 1.92 7.904 1.92 8.096V20.992C1.92 21.408 1.664 21.664 1.216 21.664H0.704Z" fill="black"/>
</svg>
