<svg viewBox="0 0 54 28" fill="none" xmlns="http://www.w3.org/2000/svg">
<path d="M24.0685 1.376C24.5165 1.376 24.7725 1.632 24.7725 2.048V2.56C24.7725 2.976 24.5165 3.232 24.0685 3.232H15.1085C14.9165 3.232 14.7885 3.36 14.7885 3.552V5.312C14.7885 5.504 14.9165 5.632 15.1085 5.632H22.9485C23.3965 5.632 23.6525 5.888 23.6525 6.304V6.656C23.6525 7.072 23.3965 7.328 22.9485 7.328H15.1085C14.9165 7.328 14.7885 7.456 14.7885 7.648V9.408C14.7885 9.6 14.9165 9.728 15.1085 9.728H23.1405C23.5885 9.728 23.8445 9.984 23.8445 10.4V10.784C23.8445 11.2 23.5885 11.456 23.1405 11.456H15.1085C14.9165 11.456 14.7885 11.584 14.7885 11.776V13.632C14.7885 13.824 14.9165 13.952 15.1085 13.952H24.8045C25.2525 13.952 25.5085 14.208 25.5085 14.624V15.296C25.5085 15.712 25.2525 15.968 24.8045 15.968H18.1485C17.9245 15.968 17.7965 16.128 17.8925 16.352C18.4045 17.536 19.0125 18.688 19.6525 19.712C19.7805 19.904 19.9405 19.904 20.1005 19.744C20.9645 18.944 21.8605 17.92 22.6285 17.088C22.9165 16.768 23.3325 16.704 23.6525 17.024L24.2605 17.6C24.5805 17.888 24.5805 18.24 24.2605 18.56C23.2685 19.456 22.1485 20.448 21.1245 21.248C20.9645 21.376 20.9325 21.536 21.0605 21.696C22.3405 23.232 23.7165 24.448 25.1565 25.28C25.5725 25.504 25.6365 25.824 25.3485 26.208C25.1565 26.432 24.9645 26.72 24.8045 26.976C24.5485 27.36 24.2285 27.456 23.8125 27.2C20.2605 24.96 17.3485 20.864 15.7485 16.224C15.6845 16.064 15.5245 15.968 15.3645 15.968H14.4045C14.2125 15.968 14.0845 16.096 14.0845 16.288V24.512C14.0845 24.736 14.2125 24.832 14.4365 24.768L17.7645 23.552C18.2125 23.392 18.5645 23.584 18.5965 24.064V24.128C18.5965 24.256 18.6285 24.352 18.6285 24.448C18.6285 24.512 18.6285 24.544 18.6285 24.576C18.6605 24.96 18.5005 25.216 18.0525 25.408C14.4365 26.88 13.2205 27.456 12.5805 27.808C12.1645 28.064 11.8765 28 11.7165 27.552C11.5885 27.232 11.3965 26.848 11.2365 26.56C11.0445 26.208 11.1085 25.952 11.3325 25.632C11.5885 25.248 11.8445 24.672 11.8445 23.84V16.288C11.8445 16.096 11.7165 15.968 11.5245 15.968H11.2685C10.8205 15.968 10.5645 15.712 10.5645 15.296V14.624C10.5645 14.208 10.8205 13.952 11.2685 13.952H12.1965C12.3885 13.952 12.5165 13.824 12.5165 13.632V2.048C12.5165 1.632 12.7725 1.376 13.2205 1.376H24.0685ZM1.9565 21.664C1.5085 21.664 1.2525 21.408 1.2525 20.992V6.432C1.2525 6.016 1.5085 5.76 1.9565 5.76H4.3245C4.5165 5.76 4.6445 5.632 4.6445 5.44V0.672001C4.6445 0.256001 4.9005 0 5.3485 0H5.9885C6.4365 0 6.6925 0.256001 6.6925 0.672001V5.44C6.6925 5.632 6.8205 5.76 7.0125 5.76H9.5725C10.0205 5.76 10.2765 6.016 10.2765 6.432V19.168C10.2765 19.936 10.2125 20.544 9.6365 20.992C9.2525 21.28 8.7085 21.344 8.0045 21.376C7.5565 21.376 7.3005 21.184 7.2365 20.768C7.2365 20.736 7.2045 20.672 7.2045 20.64C7.1725 20.512 7.1405 20.384 7.1085 20.256L7.0765 20.16C6.9165 19.68 7.0765 19.392 7.5885 19.424H8.3245C8.3885 19.424 8.3885 19.392 8.3885 19.104V8.096C8.3885 7.904 8.2605 7.776 8.0685 7.776H7.0125C6.8205 7.776 6.6925 7.904 6.6925 8.096V27.232C6.6925 27.648 6.4365 27.904 5.9885 27.904H5.3485C4.9005 27.904 4.6445 27.648 4.6445 27.232V8.096C4.6445 7.904 4.5165 7.776 4.3245 7.776H3.4925C3.3005 7.776 3.1725 7.904 3.1725 8.096V20.992C3.1725 21.408 2.9165 21.664 2.4685 21.664H1.9565Z" fill="currentColor"/>
<path d="M51.288 7.84C51.736 7.84 51.992 8.096 51.992 8.512V19.2C51.992 19.616 51.736 19.872 51.288 19.872H50.296C49.848 19.872 49.592 19.616 49.592 19.2V18.496C49.592 18.304 49.464 18.176 49.272 18.176H35.928C35.736 18.176 35.64 18.272 35.608 18.464C35.16 21.664 34.168 24.96 32.024 27.552C31.736 27.936 31.32 27.904 31.032 27.52C30.936 27.392 30.84 27.296 30.712 27.168L30.392 26.848C30.072 26.56 30.04 26.272 30.296 25.92C33.336 22.08 33.656 16.64 33.656 12.448V3.84C33.656 3.424 33.88 3.168 34.328 3.104C39.512 2.432 45.336 1.344 48.856 0.16C49.208 0.0320015 49.528 0.128 49.784 0.384001L50.456 1.088C50.808 1.44 50.712 1.856 50.2 1.984C46.392 3.168 41.176 4.16 36.312 4.8C36.12 4.832 36.024 4.928 36.024 5.12V7.52C36.024 7.712 36.152 7.84 36.344 7.84H51.288ZM35.896 15.744C35.896 15.968 36.024 16.096 36.216 16.096H49.272C49.464 16.096 49.592 15.968 49.592 15.776V10.304C49.592 10.112 49.464 9.984 49.272 9.984H36.344C36.152 9.984 36.024 10.112 36.024 10.304V12.448C36.024 13.472 36.024 14.592 35.896 15.744Z" fill="currentColor"/>
</svg>
