<svg viewBox="0 0 56 28" fill="none" xmlns="http://www.w3.org/2000/svg">
<path d="M24 21.7929C24 21.9255 23.9473 22.0527 23.8536 22.1464L23.3536 22.6464C23.1583 22.8417 23.1583 23.1583 23.3536 23.3536L23.8536 23.8536C23.9473 23.9473 24 24.0745 24 24.2071V25.7929C24 25.9255 23.9473 26.0527 23.8536 26.1464L22.1464 27.8536C22.0527 27.9473 21.9255 28 21.7929 28H4.5C4.22386 28 4 27.7761 4 27.5V25.5C4 25.2239 4.22386 25 4.5 25H5.5C5.77614 25 6 25.2239 6 25.5C6 25.7761 6.22386 26 6.5 26H21.5C21.7761 26 22 25.7761 22 25.5V24.5C22 24.2239 21.7761 24 21.5 24H6.5C6.22386 24 6 23.7761 6 23.5V22.5C6 22.2239 6.22386 22 6.5 22H21.5C21.7761 22 22 21.7761 22 21.5V20H23.5C23.7761 20 24 20.2239 24 20.5V21.7929Z" fill="currentColor"/>
<path d="M22 20H4.5C4.22386 20 4 19.7761 4 19.5V18.5C4 18.2239 4.22386 18 4.5 18H21.5C21.7761 18 22 18.2239 22 18.5V20Z" fill="currentColor"/>
<path d="M14 0C14.2761 -1.20706e-08 14.5 0.223858 14.5 0.5V2H21.5C21.7761 2 22 2.22386 22 2.5V4H14.5V5H22V4H23.5C23.7761 4 24 4.22386 24 4.5V5H26.5C26.7761 5 27 5.22386 27 5.5V6.5C27 6.77614 26.7761 7 26.5 7H24V10H14.5V11.5H24.5C24.7761 11.5 25 11.7239 25 12V13C25 13.2761 24.7761 13.5 24.5 13.5H14.5V15H26.5C26.7761 15 27 15.2239 27 15.5V16.5C27 16.7761 26.7761 17 26.5 17H0.5C0.223858 17 0 16.7761 0 16.5V15.5C0 15.2239 0.223858 15 0.5 15H12.5V13.5H2.5C2.22386 13.5 2 13.2761 2 13V12C2 11.7239 2.22386 11.5 2.5 11.5H12.5V10H3.5C3.22386 10 3 9.77614 3 9.5V8.5C3 8.22386 3.22386 8 3.5 8H12.5V7H0.5C0.223858 7 0 6.77614 0 6.5V5.5C0 5.22386 0.223858 5 0.5 5H12.5V4H3.5C3.22386 4 3 3.77614 3 3.5V2.5C3 2.22386 3.22386 2 3.5 2H12.5V0.5C12.5 0.223858 12.7239 1.49501e-07 13 0H14ZM14.5 7V8H22V7H14.5Z" fill="currentColor"/>
<path d="M54.1005 10.576C54.5485 10.576 54.8045 10.832 54.8045 11.248V11.984C54.8045 12.4 54.5485 12.656 54.1005 12.656H46.2605C46.0685 12.656 45.9405 12.784 45.9405 12.976V16.464C45.9405 16.656 46.0685 16.784 46.2605 16.784H52.7885C53.2365 16.784 53.4925 17.04 53.4925 17.456V26.864C53.4925 27.28 53.2365 27.536 52.7885 27.536H51.7965C51.3485 27.536 51.0925 27.312 51.0925 26.96V26.704C51.0925 26.512 50.9645 26.384 50.7725 26.384H40.2125C40.0205 26.384 39.8925 26.512 39.8925 26.704V26.928C39.8925 27.344 39.6365 27.6 39.1885 27.6H38.2605C37.8125 27.6 37.5565 27.344 37.5565 26.928V17.456C37.5565 17.04 37.8125 16.784 38.2605 16.784H43.2205C43.4125 16.784 43.5405 16.656 43.5405 16.464V7.632C43.5405 7.216 43.7965 6.96 44.2445 6.96H45.2365C45.6845 6.96 45.9405 7.216 45.9405 7.632V10.256C45.9405 10.448 46.0685 10.576 46.2605 10.576H54.1005ZM31.0605 27.024C30.7085 26.768 30.5805 26.512 30.7725 26.128C32.8525 21.808 33.0445 15.952 33.0445 11.696V4.4C33.0445 3.984 33.3005 3.728 33.7485 3.728H43.4125C43.6365 3.728 43.7325 3.568 43.6685 3.344C43.3805 2.672 43.0605 1.968 42.7085 1.328C42.5165 0.911999 42.6445 0.591999 43.1245 0.463999L43.9885 0.239998C44.3725 0.143999 44.6925 0.239998 44.9165 0.591999C45.4605 1.52 45.9725 2.576 46.2605 3.472C46.3245 3.632 46.4845 3.728 46.6445 3.728H54.9645C55.4125 3.728 55.6685 3.984 55.6685 4.4V5.232C55.6685 5.648 55.4125 5.904 54.9645 5.904H35.7645C35.5725 5.904 35.4445 6.032 35.4445 6.224V11.696C35.4445 16.24 35.1245 22.768 32.8525 27.44C32.6605 27.888 32.2765 27.952 31.9885 27.696C31.7005 27.472 31.3485 27.216 31.0605 27.024ZM39.8925 24.016C39.8925 24.208 40.0205 24.336 40.2125 24.336H50.7725C50.9645 24.336 51.0925 24.208 51.0925 24.016V19.184C51.0925 18.992 50.9645 18.864 50.7725 18.864H40.2125C40.0205 18.864 39.8925 18.992 39.8925 19.184V24.016Z" fill="currentColor"/>
</svg>
