<svg viewBox="0 0 56 28" fill="none" xmlns="http://www.w3.org/2000/svg">
<path d="M24 21.7929C24 21.9255 23.9473 22.0527 23.8536 22.1464L23.3536 22.6464C23.1583 22.8417 23.1583 23.1583 23.3536 23.3536L23.8536 23.8536C23.9473 23.9473 24 24.0745 24 24.2071V25.7929C24 25.9255 23.9473 26.0527 23.8536 26.1464L22.1464 27.8536C22.0527 27.9473 21.9255 28 21.7929 28H4.5C4.22386 28 4 27.7761 4 27.5V25.5C4 25.2239 4.22386 25 4.5 25H5.5C5.77614 25 6 25.2239 6 25.5C6 25.7761 6.22386 26 6.5 26H21.5C21.7761 26 22 25.7761 22 25.5V24.5C22 24.2239 21.7761 24 21.5 24H6.5C6.22386 24 6 23.7761 6 23.5V22.5C6 22.2239 6.22386 22 6.5 22H21.5C21.7761 22 22 21.7761 22 21.5V20H23.5C23.7761 20 24 20.2239 24 20.5V21.7929Z" fill="currentColor"/>
<path d="M22 20H4.5C4.22386 20 4 19.7761 4 19.5V18.5C4 18.2239 4.22386 18 4.5 18H21.5C21.7761 18 22 18.2239 22 18.5V20Z" fill="currentColor"/>
<path d="M14 0C14.2761 -1.20706e-08 14.5 0.223858 14.5 0.5V2H21.5C21.7761 2 22 2.22386 22 2.5V4H14.5V5H22V4H23.5C23.7761 4 24 4.22386 24 4.5V5H26.5C26.7761 5 27 5.22386 27 5.5V6.5C27 6.77614 26.7761 7 26.5 7H24V10H14.5V11.5H24.5C24.7761 11.5 25 11.7239 25 12V13C25 13.2761 24.7761 13.5 24.5 13.5H14.5V15H26.5C26.7761 15 27 15.2239 27 15.5V16.5C27 16.7761 26.7761 17 26.5 17H0.5C0.223858 17 0 16.7761 0 16.5V15.5C0 15.2239 0.223858 15 0.5 15H12.5V13.5H2.5C2.22386 13.5 2 13.2761 2 13V12C2 11.7239 2.22386 11.5 2.5 11.5H12.5V10H3.5C3.22386 10 3 9.77614 3 9.5V8.5C3 8.22386 3.22386 8 3.5 8H12.5V7H0.5C0.223858 7 0 6.77614 0 6.5V5.5C0 5.22386 0.223858 5 0.5 5H12.5V4H3.5C3.22386 4 3 3.77614 3 3.5V2.5C3 2.22386 3.22386 2 3.5 2H12.5V0.5C12.5 0.223858 12.7239 1.49501e-07 13 0H14ZM14.5 7V8H22V7H14.5Z" fill="currentColor"/>
<path d="M54.4845 16.528C54.9325 16.528 55.1885 16.784 55.1885 17.2V17.904C55.1885 18.32 54.9325 18.576 54.4845 18.576H46.4525C46.1965 18.576 46.0685 18.768 46.2605 18.96C48.5005 21.648 51.8605 23.824 55.1565 25.04C55.6365 25.2 55.7325 25.52 55.4445 25.936C55.2845 26.096 55.1565 26.32 55.0285 26.544L54.9325 26.704C54.7085 27.056 54.3885 27.184 54.0045 27.024C50.6765 25.648 47.3485 23.344 44.9485 20.592C44.7565 20.368 44.5645 20.432 44.5645 20.72V27.312C44.5645 27.728 44.3085 27.984 43.8605 27.984H42.8365C42.3885 27.984 42.1325 27.728 42.1325 27.312V20.56C42.1325 20.272 41.9405 20.208 41.7485 20.432C39.3485 23.312 35.9565 25.808 32.7245 27.248C32.3405 27.44 32.0205 27.312 31.7965 26.96C31.6685 26.736 31.5405 26.544 31.4125 26.384C31.3485 26.32 31.3165 26.256 31.2845 26.224C30.9965 25.84 31.0605 25.52 31.5405 25.328C34.6765 24.016 38.1005 21.648 40.3725 18.96C40.5325 18.768 40.4365 18.576 40.1805 18.576H32.0205C31.5725 18.576 31.3165 18.32 31.3165 17.904V17.2C31.3165 16.784 31.5725 16.528 32.0205 16.528H41.8125C42.0045 16.528 42.1325 16.4 42.1325 16.208V14.256C42.1325 13.84 42.3885 13.584 42.8365 13.584H43.8605C44.3085 13.584 44.5645 13.84 44.5645 14.256V16.208C44.5645 16.4 44.6925 16.528 44.8845 16.528H54.4845ZM31.1565 13.264C30.8685 12.912 30.9005 12.624 31.2845 12.368C33.4605 10.896 34.5165 8.624 35.0285 5.616C35.0605 5.392 34.9645 5.264 34.7405 5.264H31.8605C31.4125 5.264 31.1565 5.008 31.1565 4.592V3.92C31.1565 3.504 31.4125 3.248 31.8605 3.248H35.0285C35.2205 3.248 35.3485 3.152 35.3485 2.928C35.4125 2.224 35.4445 1.52 35.4765 0.752003C35.5085 0.304003 35.7645 0.0800018 36.2125 0.0800018H37.0765C37.5565 0.0800018 37.8125 0.336002 37.7805 0.784002C37.7485 1.2 37.7165 1.584 37.7165 2C37.6845 2.288 37.6845 2.608 37.6205 2.896C37.6205 3.12 37.7485 3.248 37.9405 3.248H42.5165C42.9965 3.248 43.2525 3.408 43.2205 3.728C43.2205 3.824 43.2205 3.888 43.2205 3.984C43.2205 4.112 43.1885 4.24 43.1885 4.368C42.9005 9.104 42.6765 11.216 42.1005 12.336C41.9725 12.592 41.8445 12.752 41.5885 12.912C41.2365 13.2 40.7565 13.328 40.2125 13.392C39.7325 13.456 38.9005 13.456 37.9725 13.424C37.5245 13.392 37.3005 13.2 37.2365 12.784C37.2045 12.592 37.1405 12.368 37.0765 12.176C36.9485 11.664 37.1405 11.408 37.6845 11.472C37.7805 11.472 37.8765 11.472 37.9725 11.472C38.1005 11.472 38.2285 11.504 38.3565 11.504C38.7725 11.504 39.1245 11.536 39.3485 11.536C39.6685 11.536 39.7325 11.504 39.9885 11.216C40.3405 10.8 40.5965 9.296 40.8525 5.616C40.8845 5.392 40.7565 5.264 40.5645 5.264H37.6205C37.4285 5.264 37.3325 5.36 37.3005 5.552C36.7565 9.296 35.5405 12.176 32.5965 14.16C32.1805 14.416 31.8285 14.32 31.6045 13.936C31.4765 13.712 31.3165 13.456 31.1565 13.264ZM45.5885 12.816C45.1405 12.816 44.8845 12.56 44.8845 12.144V3.152C44.8845 2.736 45.1405 2.48 45.5885 2.48H54.0685C54.5165 2.48 54.7725 2.736 54.7725 3.152V12.144C54.7725 12.56 54.5165 12.816 54.0685 12.816H45.5885ZM47.1245 10.544C47.1245 10.736 47.2525 10.864 47.4445 10.864H52.1165C52.3085 10.864 52.4365 10.736 52.4365 10.544V4.784C52.4365 4.592 52.3085 4.464 52.1165 4.464H47.4445C47.2525 4.464 47.1245 4.592 47.1245 4.784V10.544Z" fill="currentColor"/>
</svg>
