<svg viewBox="0 0 54 28" fill="none" xmlns="http://www.w3.org/2000/svg">
<path d="M52.3715 10.592C52.8195 10.592 53.0755 10.848 53.0755 11.264V12C53.0755 12.416 52.8195 12.672 52.3715 12.672H44.5315C44.3395 12.672 44.2115 12.8 44.2115 12.992V16.48C44.2115 16.672 44.3395 16.8 44.5315 16.8H51.0595C51.5075 16.8 51.7635 17.056 51.7635 17.472V26.88C51.7635 27.296 51.5075 27.552 51.0595 27.552H50.0675C49.6195 27.552 49.3635 27.328 49.3635 26.976V26.72C49.3635 26.528 49.2355 26.4 49.0435 26.4H38.4835C38.2915 26.4 38.1635 26.528 38.1635 26.72V26.944C38.1635 27.36 37.9075 27.616 37.4595 27.616H36.5315C36.0835 27.616 35.8275 27.36 35.8275 26.944V17.472C35.8275 17.056 36.0835 16.8 36.5315 16.8H41.4915C41.6835 16.8 41.8115 16.672 41.8115 16.48V7.648C41.8115 7.232 42.0675 6.976 42.5155 6.976H43.5075C43.9555 6.976 44.2115 7.232 44.2115 7.648V10.272C44.2115 10.464 44.3395 10.592 44.5315 10.592H52.3715ZM29.3315 27.04C28.9795 26.784 28.8515 26.528 29.0435 26.144C31.1235 21.824 31.3155 15.968 31.3155 11.712V4.416C31.3155 4 31.5715 3.744 32.0195 3.744H41.6835C41.9075 3.744 42.0035 3.584 41.9395 3.36C41.6515 2.688 41.3315 1.984 40.9795 1.344C40.7875 0.927999 40.9155 0.608 41.3955 0.48L42.2595 0.255999C42.6435 0.16 42.9635 0.255999 43.1875 0.608C43.7315 1.536 44.2435 2.592 44.5315 3.488C44.5955 3.648 44.7555 3.744 44.9155 3.744H53.2355C53.6835 3.744 53.9395 4 53.9395 4.416V5.248C53.9395 5.664 53.6835 5.92 53.2355 5.92H34.0355C33.8435 5.92 33.7155 6.048 33.7155 6.24V11.712C33.7155 16.256 33.3955 22.784 31.1235 27.456C30.9315 27.904 30.5475 27.968 30.2595 27.712C29.9715 27.488 29.6195 27.232 29.3315 27.04ZM38.1635 24.032C38.1635 24.224 38.2915 24.352 38.4835 24.352H49.0435C49.2355 24.352 49.3635 24.224 49.3635 24.032V19.2C49.3635 19.008 49.2355 18.88 49.0435 18.88H38.4835C38.2915 18.88 38.1635 19.008 38.1635 19.2V24.032Z" fill="currentColor"/>
<path d="M21.2285 20.249C21.5047 20.249 21.7285 20.4729 21.7285 20.749V21.7725C21.7284 21.9165 21.666 22.0536 21.5576 22.1484L21.1582 22.498C20.931 22.6972 20.931 23.0508 21.1582 23.25L21.5576 23.5996C21.666 23.6945 21.7284 23.8315 21.7285 23.9756V25.292C21.7285 25.4246 21.6758 25.5518 21.582 25.6455L19.875 27.3525C19.7812 27.4463 19.6541 27.499 19.5215 27.499H4.22852C3.95237 27.499 3.72852 27.2752 3.72852 26.999V24.999C3.72852 24.7229 3.95237 24.499 4.22852 24.499H5.22852C5.47023 24.499 5.67222 24.6705 5.71875 24.8984L5.73828 25.0996C5.78481 25.3276 5.9868 25.499 6.22852 25.499H19.2285C19.5047 25.499 19.7285 25.2752 19.7285 24.999V24.249C19.7285 23.9729 19.5047 23.749 19.2285 23.749H6.22852C5.95237 23.749 5.72852 23.5252 5.72852 23.249V22.499C5.72852 22.2229 5.95237 21.999 6.22852 21.999H19.2285C19.5047 21.999 19.7285 21.7752 19.7285 21.499V20.249H21.2285ZM19.2285 18.499C19.5047 18.499 19.7285 18.7229 19.7285 18.999V20.249H4.22852C3.95237 20.249 3.72852 20.0252 3.72852 19.749V18.999C3.72852 18.7229 3.95237 18.499 4.22852 18.499H19.2285ZM12.64 0C13.088 0 13.3438 0.255875 13.3438 0.671875V1.82422C13.3439 2.01602 13.4722 2.14355 13.6641 2.14355H20.4805C20.928 2.14373 21.1834 2.39983 21.1836 2.81543V5.12012C21.1837 5.31195 21.312 5.43941 21.5039 5.43945H23.8398C24.2878 5.43945 24.5439 5.6963 24.5439 6.1123V6.43164C24.5439 6.84764 24.2878 7.10352 23.8398 7.10352H21.5039C21.312 7.10356 21.1836 7.23188 21.1836 7.42383V9.75977C21.1836 10.1756 20.9282 10.4315 20.4805 10.4316H13.6641C13.4721 10.4316 13.3438 10.56 13.3438 10.752V11.8398C13.3438 12.0318 13.4721 12.1602 13.6641 12.1602H22.0156C22.4636 12.1602 22.7197 12.416 22.7197 12.832V13.0234C22.7197 13.4394 22.4636 13.6963 22.0156 13.6963H13.6641C13.4721 13.6963 13.3439 13.8238 13.3438 14.0156V15.168C13.3438 15.3599 13.4721 15.4883 13.6641 15.4883H23.8398C24.2878 15.4883 24.5439 15.7442 24.5439 16.1602V16.5117C24.5439 16.9277 24.2878 17.1836 23.8398 17.1836H0.704102C0.256101 17.1836 0 16.9277 0 16.5117V16.1602C0 15.7442 0.256101 15.4883 0.704102 15.4883H10.6562C10.8481 15.4882 10.9755 15.3598 10.9756 15.168V14.0156C10.9755 13.8238 10.848 13.6964 10.6562 13.6963H2.52832C2.08032 13.6963 1.82422 13.4394 1.82422 13.0234V12.832C1.82422 12.416 2.08032 12.1602 2.52832 12.1602H10.6562C10.8481 12.16 10.9756 12.0318 10.9756 11.8398V10.752C10.9756 10.56 10.8481 10.4318 10.6562 10.4316H3.2959C2.84796 10.4316 2.5918 10.1757 2.5918 9.75977V9.59961C2.5919 9.18379 2.84805 8.92777 3.2959 8.92773H10.6562C10.8481 8.92762 10.9756 8.79934 10.9756 8.60742V7.42383C10.9756 7.23194 10.8481 7.10363 10.6562 7.10352H0.736328C0.288328 7.10352 0.0322266 6.84764 0.0322266 6.43164V6.1123C0.0322266 5.6963 0.288328 5.43945 0.736328 5.43945H10.6562C10.848 5.43934 10.9755 5.3119 10.9756 5.12012V3.96777C10.9755 3.77591 10.8481 3.64757 10.6562 3.64746H3.61621C3.16821 3.64746 2.91211 3.39159 2.91211 2.97559V2.81543C2.91229 2.39969 3.16837 2.14355 3.61621 2.14355H10.6562C10.848 2.14344 10.9754 2.01594 10.9756 1.82422V0.671875C10.9756 0.255971 11.2322 0.000118429 11.68 0H12.64ZM13.6641 7.10352C13.4721 7.10352 13.3438 7.23185 13.3438 7.42383V8.60742C13.3438 8.79942 13.4721 8.92773 13.6641 8.92773H18.5283C18.7201 8.92759 18.8477 8.79932 18.8477 8.60742V7.42383C18.8476 7.23196 18.7201 7.10366 18.5283 7.10352H13.6641ZM13.6641 3.64746C13.4721 3.64746 13.3438 3.77583 13.3438 3.96777V5.12012C13.3439 5.31198 13.4721 5.43945 13.6641 5.43945H18.5283C18.7201 5.43931 18.8475 5.31187 18.8477 5.12012V3.96777C18.8476 3.77593 18.7201 3.6476 18.5283 3.64746H13.6641Z" fill="currentColor"/>
</svg>
