<svg viewBox="0 0 174 86">
  <path d="M158.121 74.372V59h-35.687v15.372zm-65.243 6.955c-1.006-.64-1.28-1.464-.732-2.562 6.497-12.903 7.046-30.471 7.046-43.007V24.136c0-3.934-.183-8.784-.549-11.62 0-.733.366-.733.549-.733 4.026.458 10.615.732 16.105.732h16.105V6.934c0-1.281 0-2.654-.092-4.027-.091-1.28.275-1.921 1.007-2.013h1.189c2.471 0 5.582.183 7.229.64 1.007.275.915 1.007.366 1.922-.549 1.007-1.007 2.105-1.007 3.935v5.124h16.746c4.941 0 9.882-.183 14.915-.549 1.189-.091 2.013.458 2.013 1.647.092.915.092 1.922.092 3.02s0 2.105-.092 3.02c0 1.19-.824 1.738-2.013 1.647-4.118-.366-9.883-.55-14.641-.55h-49.595v15.008c0 13.634-1.281 33.673-8.144 47.582-.64 1.28-1.464 1.555-2.38.823-1.189-.915-2.744-2.013-4.117-2.836m22.419 4.392c-1.19-.183-1.647-.915-1.556-2.105.366-4.209.549-10.157.549-15.19v-8.51c0-2.928-.183-6.313-.366-8.418 0-.457.183-.457.366-.457 2.562.274 6.772.457 10.249.457h10.34V36.947c0-4.118-.183-9.15-.458-12.994-.091-1.28.275-1.921 1.007-2.013h1.281c2.47 0 5.399.183 6.954.64.915.275.824 1.007.366 1.923-.457.823-.732 1.738-.732 3.202v4.484h14.549q6.451 0 12.628-.55c1.189 0 2.013.55 2.013 1.74.091.731.091 1.647.091 2.562s0 1.921-.091 2.653c0 1.19-.824 1.739-2.013 1.647-3.569-.274-8.419-.457-12.628-.457h-14.549v11.712h11.713c4.026 0 8.784-.183 11.712-.549.366 0 .366.366.366.55-.183 2.104-.366 5.49-.366 8.418v8.51c0 4.94.183 10.797.549 15.098.092 1.098-.366 1.921-1.555 2.104-.915.092-2.105.092-3.203.092a31 31 0 0 1-3.203-.183c-1.006-.092-1.281-.55-1.189-1.098v-2.471h-35.687v1.739c0 .549.092 1.28.092 1.647 0 .274-2.105.457-4.21.457-1.098 0-2.196 0-3.019-.091M70.698 56.764c.37 0 .37.37.37.648a80 80 0 0 0-.37 7.217v7.218c0 4.072.184 7.94.462 11.549.092 1.202-.37 2.034-1.572 2.127-.833.093-1.944.093-3.055.093-1.203 0-2.313-.092-3.146-.184-.925-.093-1.295-.464-1.203-.926V83.6s-6.722-.285-13.93-.316c-7.296-.03-15.273 0-17.228 0-3.288 0-12.072.801-14.696 1.048a.605.605 0 0 1-.656-.679l.602-4.812a.594.594 0 0 1 .543-.524c6.045-.454 22.441-.454 22.441-.454h22.924v-4.906H36.517c-3.692 0-9.04.173-11.025.242a.755.755 0 0 1-.78-.757v-4.39c0-.428.35-.77.776-.757 2.254.073 8.776.28 11.03.296 2.742.02 25.666 0 25.666 0v-4.627s-26.951.275-41.733 0c-4.218-.078-6.815-.276-7.851-.37a.594.594 0 0 1-.538-.571 77 77 0 0 0-.31-4.611c0-.648.186-.648.37-.648 3.61.37 9.624.648 14.62.648h29.334c4.997 0 11.013-.278 14.622-.648M38.402.502c2.129 0 4.905.185 6.478.555 1.11.278.833 1.11.278 1.943-.185.463-.37.926-.37 1.574v2.684h23.596c1.203 0 1.943.74 1.943 1.942v7.773h5.368c1.203 0 2.314.001 3.517-.091 1.202-.093 1.942.369 2.035 1.479v3.332c-.092 1.203-.833 1.666-2.035 1.574-1.11-.093-2.407-.093-3.517-.093h-5.368v8.05c0 1.203-.74 1.943-1.943 1.943H44.787v4.257H59.78c4.349 0 8.79-.185 13.139-.555 1.203 0 2.036.462 2.129 1.572v3.332c-.093 1.203-.926 1.758-2.129 1.666-3.701-.278-8.883-.462-13.139-.462H44.787v4.44h18.138c5.46 0 10.92-.184 16.287-.646 1.202 0 2.034.555 2.127 1.758v2.036c0 .647 0 1.388-.092 2.035 0 1.203-.833 1.758-2.035 1.666-5.09-.463-12.215-.648-18.23-.648h-40.16c-6.108 0-12.123.185-18.23.648-1.203.092-1.943-.185-2.036-.833-.093-.833-.093-1.85-.093-2.868v-2.036c.092-1.203.926-1.76 2.129-1.667 4.441.37 10.734.555 15.916.555h17.767v-4.44H21.56q-6.524 0-12.77.555c-1.203 0-2.035-.464-2.128-1.574v-3.424c.093-1.203.926-1.666 2.036-1.573 3.609.277 8.605.463 12.862.463h14.714v-4.257H22.67c-3.979 0-7.865.093-11.658.37-1.203.093-2.037-.37-2.13-1.48V28.91c.093-1.202.926-1.664 2.037-1.572 3.33.278 7.865.37 11.75.37h13.605v-4.534H18.508q-8.051 0-15.825.555C1.481 23.82.65 23.266.556 22.063v-3.98c.093-1.202.925-1.757 2.127-1.665 4.35.37 10.55.555 15.825.555h17.767v-4.44H23.227c-3.794 0-7.495.09-11.104.369-1.203.092-2.037-.37-2.13-1.388V8.46c.093-1.203.926-1.666 2.037-1.574 3.239.278 7.496.37 11.197.37h13.048V4.113c0-.463 0-1.019-.093-1.574 0-1.295.277-1.943 1.017-2.036zm6.385 27.205h17.12v-4.533h-17.12zm0-10.734h17.12v-4.44h-17.12z" fill="currentColor"/>
</svg>