<svg viewBox="0 0 54 28" fill="none" xmlns="http://www.w3.org/2000/svg">
<path d="M52.7555 16.544C53.2035 16.544 53.4595 16.8 53.4595 17.216V17.92C53.4595 18.336 53.2035 18.592 52.7555 18.592H44.7235C44.4675 18.592 44.3395 18.784 44.5315 18.976C46.7715 21.664 50.1315 23.84 53.4275 25.056C53.9075 25.216 54.0035 25.536 53.7155 25.952C53.5555 26.112 53.4275 26.336 53.2995 26.56L53.2035 26.72C52.9795 27.072 52.6595 27.2 52.2755 27.04C48.9475 25.664 45.6195 23.36 43.2195 20.608C43.0275 20.384 42.8355 20.448 42.8355 20.736V27.328C42.8355 27.744 42.5795 28 42.1315 28H41.1075C40.6595 28 40.4035 27.744 40.4035 27.328V20.576C40.4035 20.288 40.2115 20.224 40.0195 20.448C37.6195 23.328 34.2275 25.824 30.9955 27.264C30.6115 27.456 30.2915 27.328 30.0675 26.976C29.9395 26.752 29.8115 26.56 29.6835 26.4C29.6195 26.336 29.5875 26.272 29.5555 26.24C29.2675 25.856 29.3315 25.536 29.8115 25.344C32.9475 24.032 36.3715 21.664 38.6435 18.976C38.8035 18.784 38.7075 18.592 38.4515 18.592H30.2915C29.8435 18.592 29.5875 18.336 29.5875 17.92V17.216C29.5875 16.8 29.8435 16.544 30.2915 16.544H40.0835C40.2755 16.544 40.4035 16.416 40.4035 16.224V14.272C40.4035 13.856 40.6595 13.6 41.1075 13.6H42.1315C42.5795 13.6 42.8355 13.856 42.8355 14.272V16.224C42.8355 16.416 42.9635 16.544 43.1555 16.544H52.7555ZM29.4275 13.28C29.1395 12.928 29.1715 12.64 29.5555 12.384C31.7315 10.912 32.7875 8.64 33.2995 5.632C33.3315 5.408 33.2355 5.28 33.0115 5.28H30.1315C29.6835 5.28 29.4275 5.024 29.4275 4.608V3.936C29.4275 3.52 29.6835 3.264 30.1315 3.264H33.2995C33.4915 3.264 33.6195 3.168 33.6195 2.944C33.6835 2.24 33.7155 1.536 33.7475 0.768002C33.7795 0.320002 34.0355 0.0960007 34.4835 0.0960007H35.3475C35.8275 0.0960007 36.0835 0.352001 36.0515 0.800001C36.0195 1.216 35.9875 1.6 35.9875 2.016C35.9555 2.304 35.9555 2.624 35.8915 2.912C35.8915 3.136 36.0195 3.264 36.2115 3.264H40.7875C41.2675 3.264 41.5235 3.424 41.4915 3.744C41.4915 3.84 41.4915 3.904 41.4915 4C41.4915 4.128 41.4595 4.256 41.4595 4.384C41.1715 9.12 40.9475 11.232 40.3715 12.352C40.2435 12.608 40.1155 12.768 39.8595 12.928C39.5075 13.216 39.0275 13.344 38.4835 13.408C38.0035 13.472 37.1715 13.472 36.2435 13.44C35.7955 13.408 35.5715 13.216 35.5075 12.8C35.4755 12.608 35.4115 12.384 35.3475 12.192C35.2195 11.68 35.4115 11.424 35.9555 11.488C36.0515 11.488 36.1475 11.488 36.2435 11.488C36.3715 11.488 36.4995 11.52 36.6275 11.52C37.0435 11.52 37.3955 11.552 37.6195 11.552C37.9395 11.552 38.0035 11.52 38.2595 11.232C38.6115 10.816 38.8675 9.312 39.1235 5.632C39.1555 5.408 39.0275 5.28 38.8355 5.28H35.8915C35.6995 5.28 35.6035 5.376 35.5715 5.568C35.0275 9.312 33.8115 12.192 30.8675 14.176C30.4515 14.432 30.0995 14.336 29.8755 13.952C29.7475 13.728 29.5875 13.472 29.4275 13.28ZM43.8595 12.832C43.4115 12.832 43.1555 12.576 43.1555 12.16V3.168C43.1555 2.752 43.4115 2.496 43.8595 2.496H52.3395C52.7875 2.496 53.0435 2.752 53.0435 3.168V12.16C53.0435 12.576 52.7875 12.832 52.3395 12.832H43.8595ZM45.3955 10.56C45.3955 10.752 45.5235 10.88 45.7155 10.88H50.3875C50.5795 10.88 50.7075 10.752 50.7075 10.56V4.8C50.7075 4.608 50.5795 4.48 50.3875 4.48H45.7155C45.5235 4.48 45.3955 4.608 45.3955 4.8V10.56Z" fill="currentColor"/>
<path d="M21.2285 20.249C21.5047 20.249 21.7285 20.4729 21.7285 20.749V21.7725C21.7284 21.9165 21.666 22.0536 21.5576 22.1484L21.1582 22.498C20.931 22.6972 20.931 23.0508 21.1582 23.25L21.5576 23.5996C21.666 23.6945 21.7284 23.8315 21.7285 23.9756V25.292C21.7285 25.4246 21.6758 25.5518 21.582 25.6455L19.875 27.3525C19.7812 27.4463 19.6541 27.499 19.5215 27.499H4.22852C3.95237 27.499 3.72852 27.2752 3.72852 26.999V24.999C3.72852 24.7229 3.95237 24.499 4.22852 24.499H5.22852C5.47023 24.499 5.67222 24.6705 5.71875 24.8984L5.73828 25.0996C5.78481 25.3276 5.9868 25.499 6.22852 25.499H19.2285C19.5047 25.499 19.7285 25.2752 19.7285 24.999V24.249C19.7285 23.9729 19.5047 23.749 19.2285 23.749H6.22852C5.95237 23.749 5.72852 23.5252 5.72852 23.249V22.499C5.72852 22.2229 5.95237 21.999 6.22852 21.999H19.2285C19.5047 21.999 19.7285 21.7752 19.7285 21.499V20.249H21.2285ZM19.2285 18.499C19.5047 18.499 19.7285 18.7229 19.7285 18.999V20.249H4.22852C3.95237 20.249 3.72852 20.0252 3.72852 19.749V18.999C3.72852 18.7229 3.95237 18.499 4.22852 18.499H19.2285ZM12.6396 0C13.0876 0 13.3438 0.255875 13.3438 0.671875V1.82422C13.3439 2.01602 13.4722 2.14355 13.6641 2.14355H20.4805C20.928 2.14373 21.1834 2.39983 21.1836 2.81543V5.12012C21.1837 5.31195 21.312 5.43941 21.5039 5.43945H23.8398C24.2878 5.43945 24.5439 5.6963 24.5439 6.1123V6.43164C24.5439 6.84764 24.2878 7.10352 23.8398 7.10352H21.5039C21.312 7.10356 21.1836 7.23188 21.1836 7.42383V9.75977C21.1836 10.1756 20.9282 10.4315 20.4805 10.4316H13.6641C13.4721 10.4316 13.3438 10.56 13.3438 10.752V11.8398C13.3438 12.0318 13.4721 12.1602 13.6641 12.1602H22.0156C22.4636 12.1602 22.7197 12.416 22.7197 12.832V13.0234C22.7197 13.4394 22.4636 13.6963 22.0156 13.6963H13.6641C13.4721 13.6963 13.3439 13.8238 13.3438 14.0156V15.168C13.3438 15.3599 13.4721 15.4883 13.6641 15.4883H23.8398C24.2878 15.4883 24.5439 15.7442 24.5439 16.1602V16.5117C24.5439 16.9277 24.2878 17.1836 23.8398 17.1836H0.704102C0.256101 17.1836 0 16.9277 0 16.5117V16.1602C0 15.7442 0.256101 15.4883 0.704102 15.4883H10.6562C10.8481 15.4882 10.9755 15.3598 10.9756 15.168V14.0156C10.9755 13.8238 10.848 13.6964 10.6562 13.6963H2.52832C2.08032 13.6963 1.82422 13.4394 1.82422 13.0234V12.832C1.82422 12.416 2.08032 12.1602 2.52832 12.1602H10.6562C10.8481 12.16 10.9756 12.0318 10.9756 11.8398V10.752C10.9756 10.56 10.8481 10.4318 10.6562 10.4316H3.2959C2.84796 10.4316 2.5918 10.1757 2.5918 9.75977V9.59961C2.5919 9.18379 2.84805 8.92777 3.2959 8.92773H10.6562C10.8481 8.92762 10.9756 8.79934 10.9756 8.60742V7.42383C10.9756 7.23194 10.8481 7.10363 10.6562 7.10352H0.736328C0.288328 7.10352 0.0322266 6.84764 0.0322266 6.43164V6.1123C0.0322266 5.6963 0.288328 5.43945 0.736328 5.43945H10.6562C10.848 5.43934 10.9755 5.3119 10.9756 5.12012V3.96777C10.9755 3.77591 10.8481 3.64757 10.6562 3.64746H3.61621C3.16821 3.64746 2.91211 3.39159 2.91211 2.97559V2.81543C2.91229 2.39969 3.16837 2.14355 3.61621 2.14355H10.6562C10.848 2.14344 10.9754 2.01594 10.9756 1.82422V0.671875C10.9756 0.255971 11.2319 0.000118429 11.6797 0H12.6396ZM13.6641 7.10352C13.4721 7.10352 13.3438 7.23185 13.3438 7.42383V8.60742C13.3438 8.79942 13.4721 8.92773 13.6641 8.92773H18.5283C18.7201 8.92759 18.8477 8.79932 18.8477 8.60742V7.42383C18.8476 7.23196 18.7201 7.10366 18.5283 7.10352H13.6641ZM13.6641 3.64746C13.4721 3.64746 13.3438 3.77583 13.3438 3.96777V5.12012C13.3439 5.31198 13.4721 5.43945 13.6641 5.43945H18.5283C18.7201 5.43931 18.8475 5.31187 18.8477 5.12012V3.96777C18.8476 3.77593 18.7201 3.6476 18.5283 3.64746H13.6641Z" fill="currentColor"/>
</svg>
