<svg viewBox="0 0 83 29" fill="none" xmlns="http://www.w3.org/2000/svg">
<path d="M51.1075 21.8097C51.1075 21.9423 51.0548 22.0695 50.9611 22.1633L50.4611 22.6633C50.2658 22.8586 50.2658 23.1751 50.4611 23.3704L50.9611 23.8704C51.0548 23.9642 51.1075 24.0913 51.1075 24.224V25.8097C51.1075 25.9423 51.0548 26.0695 50.9611 26.1633L49.254 27.8704C49.1602 27.9642 49.033 28.0168 48.9004 28.0168H31.6075C31.3314 28.0168 31.1075 27.793 31.1075 27.5168V25.5168C31.1075 25.2407 31.3314 25.0168 31.6075 25.0168H32.6075C32.8837 25.0168 33.1075 25.2407 33.1075 25.5168C33.1075 25.793 33.3314 26.0168 33.6075 26.0168H48.6075C48.8837 26.0168 49.1075 25.793 49.1075 25.5168V24.5168C49.1075 24.2407 48.8837 24.0168 48.6075 24.0168H33.6075C33.3314 24.0168 33.1075 23.793 33.1075 23.5168V22.5168C33.1075 22.2407 33.3314 22.0168 33.6075 22.0168H48.6075C48.8837 22.0168 49.1075 21.793 49.1075 21.5168V20.0168H50.6075C50.8837 20.0168 51.1075 20.2407 51.1075 20.5168V21.8097Z" fill="currentColor"/>
<path d="M49.1075 20.0168H31.6075C31.3314 20.0168 31.1075 19.793 31.1075 19.5168V18.5168C31.1075 18.2407 31.3314 18.0168 31.6075 18.0168H48.6075C48.8837 18.0168 49.1075 18.2407 49.1075 18.5168V20.0168Z" fill="currentColor"/>
<path d="M41.1075 0.0168438C41.3837 0.0168439 41.6075 0.240701 41.6075 0.516844V2.01684H48.6075C48.8837 2.01684 49.1075 2.2407 49.1075 2.51684V4.01684H41.6075V5.01684H49.1075V4.01684H50.6075C50.8837 4.01684 51.1075 4.2407 51.1075 4.51684V5.01684H53.6075C53.8837 5.01684 54.1075 5.2407 54.1075 5.51684V6.51684C54.1075 6.79299 53.8837 7.01684 53.6075 7.01684H51.1075V10.0168H41.6075V11.5168H51.6075C51.8837 11.5168 52.1075 11.7407 52.1075 12.0168V13.0168C52.1075 13.293 51.8837 13.5168 51.6075 13.5168H41.6075V15.0168H53.6075C53.8837 15.0168 54.1075 15.2407 54.1075 15.5168V16.5168C54.1075 16.793 53.8837 17.0168 53.6075 17.0168H27.6075C27.3314 17.0168 27.1075 16.793 27.1075 16.5168V15.5168C27.1075 15.2407 27.3314 15.0168 27.6075 15.0168H39.6075V13.5168H29.6075C29.3314 13.5168 29.1075 13.293 29.1075 13.0168V12.0168C29.1075 11.7407 29.3314 11.5168 29.6075 11.5168H39.6075V10.0168H30.6075C30.3314 10.0168 30.1075 9.79299 30.1075 9.51684V8.51684C30.1075 8.2407 30.3314 8.01684 30.6075 8.01684H39.6075V7.01684H27.6075C27.3314 7.01684 27.1075 6.79299 27.1075 6.51684V5.51684C27.1075 5.2407 27.3314 5.01684 27.6075 5.01684H39.6075V4.01684H30.6075C30.3314 4.01684 30.1075 3.79299 30.1075 3.51684V2.51684C30.1075 2.2407 30.3314 2.01684 30.6075 2.01684H39.6075V0.516844C39.6075 0.240701 39.8314 0.0168438 40.1075 0.0168438H41.1075ZM41.6075 7.01684V8.01684H49.1075V7.01684H41.6075Z" fill="currentColor"/>
<path d="M79.672 8.19284C80.12 8.19284 80.376 8.44884 80.376 8.86484V15.1688C80.376 15.5848 80.12 15.8408 79.672 15.8408H73.24C73.048 15.8408 72.92 15.9688 72.92 16.1608V18.0808C72.92 18.2728 73.048 18.4008 73.24 18.4008H80.696C81.144 18.4008 81.4 18.6568 81.4 19.0728V27.1688C81.4 27.5848 81.144 27.8408 80.696 27.8408H80.088C79.64 27.8408 79.384 27.6168 79.384 27.2328V26.9448C79.384 26.7528 79.256 26.6248 79.064 26.6248H73.24C73.048 26.6248 72.92 26.7528 72.92 26.9448V27.2968C72.92 27.7128 72.664 27.9688 72.216 27.9688H71.64C71.192 27.9688 70.936 27.7128 70.936 27.2968V8.83284C70.936 8.64084 70.808 8.51284 70.616 8.51284H69.944C69.496 8.51284 69.24 8.25684 69.24 7.84084V6.14484C69.272 6.14484 69.176 6.33684 69.048 6.52884L68.6 7.16884C68.344 7.55284 67.896 7.58484 67.608 7.20084C66.648 6.01684 65.24 4.54484 63.896 3.39284C63.736 3.23284 63.576 3.26484 63.448 3.45684C62.232 5.24884 60.664 6.97684 59.096 8.28884C58.68 8.64084 58.296 8.48084 58.136 8.00084C58.04 7.71284 57.912 7.42484 57.784 7.13684C57.624 6.78484 57.688 6.49684 58.008 6.24084C59.896 4.83284 61.784 2.72084 63.064 0.416844C63.256 0.0328429 63.608 -0.0631578 63.992 0.096842L64.472 0.288843C64.92 0.448843 65.048 0.704844 64.92 0.992842L64.824 1.18484C64.728 1.37684 64.76 1.50484 64.92 1.63284C66.328 2.84884 67.864 4.28884 68.856 5.44084C69.048 5.66484 69.24 5.56884 69.24 5.28084V4.22484C69.24 3.80884 69.496 3.55284 69.944 3.55284H75.064C75.288 3.55284 75.384 3.39284 75.32 3.20084C75.096 2.56084 74.808 1.88884 74.52 1.31284C74.36 0.928843 74.456 0.640843 74.808 0.416844L75.32 0.128844C75.704 -0.0951574 76.088 -0.0311563 76.28 0.352843C76.664 1.08884 77.016 1.88884 77.24 2.52884C77.368 2.91284 77.304 3.16884 77.08 3.32884C76.92 3.42484 77.144 3.55284 77.464 3.55284H81.688C82.136 3.55284 82.392 3.80884 82.392 4.22484V7.84084C82.392 8.25684 82.136 8.51284 81.688 8.51284H81.176C80.728 8.51284 80.472 8.25684 80.472 7.84084V5.76084C80.472 5.56884 80.344 5.44084 80.152 5.44084H71.448C71.256 5.44084 71.128 5.56884 71.128 5.76084V7.87284C71.128 8.06484 71.256 8.19284 71.448 8.19284H79.672ZM58.648 26.0488C58.488 25.6648 58.584 25.4408 58.84 25.1528C59.192 24.8008 59.544 24.2248 59.544 23.3608V9.53684C59.544 9.12084 59.8 8.86484 60.248 8.86484H62.84C63.064 8.86484 63.192 8.73684 63.096 8.51284C62.936 7.93684 62.744 7.32884 62.552 6.81684C62.424 6.43284 62.584 6.11284 63 5.95284L63.448 5.79284C63.832 5.63284 64.216 5.76084 64.344 6.17684C64.664 7.00884 64.92 7.87284 65.08 8.57684C65.112 8.76884 65.24 8.86484 65.432 8.86484H67.416C67.864 8.86484 68.12 9.12084 68.12 9.53684V18.3688C68.12 18.7848 67.864 19.0408 67.416 19.0408H61.912C61.72 19.0408 61.592 19.1688 61.592 19.3608V23.7128C61.592 23.9368 61.752 24.0648 61.976 23.9688L65.016 22.5288C65.176 22.4328 65.24 22.3048 65.176 22.1128C65.112 21.9528 65.048 21.7928 64.984 21.6328L64.696 21.0248C64.536 20.6408 64.664 20.3208 65.048 20.1288L65.432 19.9368C65.848 19.7128 66.168 19.8408 66.36 20.2248C67.128 21.8888 67.992 23.8088 68.504 25.1848C68.632 25.5688 68.504 25.8888 68.184 26.0808L67.672 26.4008C67.256 26.6568 66.872 26.5288 66.712 26.0808C66.552 25.5368 66.328 24.9288 66.072 24.3528C65.976 24.1288 65.848 24.0968 65.624 24.1928C61.976 26.0168 60.6 26.7208 59.96 27.1688C59.672 27.3928 59.448 27.6168 59.32 27.7448C59.224 27.8408 59.16 27.8728 59.16 27.8408C59.32 27.6808 59.288 27.6168 59.16 27.4568C59.096 27.3928 59.032 27.2648 59 27.1368C58.904 26.7848 58.776 26.4008 58.648 26.0488ZM61.592 16.9608C61.592 17.1528 61.72 17.2808 61.912 17.2808H65.784C65.976 17.2808 66.104 17.1528 66.104 16.9608V14.9768C66.104 14.7848 65.976 14.6568 65.784 14.6568H61.912C61.72 14.6568 61.592 14.7848 61.592 14.9768V16.9608ZM61.592 12.6088C61.592 12.8008 61.72 12.9288 61.912 12.9288H65.784C65.976 12.9288 66.104 12.8008 66.104 12.6088V10.9128C66.104 10.7208 65.976 10.5928 65.784 10.5928H61.912C61.72 10.5928 61.592 10.7208 61.592 10.9128V12.6088ZM72.92 24.3208C72.92 24.5128 73.048 24.6408 73.24 24.6408H79.064C79.256 24.6408 79.384 24.5128 79.384 24.3208V20.6728C79.384 20.4808 79.256 20.3528 79.064 20.3528H73.24C73.048 20.3528 72.92 20.4808 72.92 20.6728V24.3208ZM72.92 13.6648C72.92 13.8568 73.048 13.9848 73.24 13.9848H78.072C78.264 13.9848 78.392 13.8568 78.392 13.6648V10.4008C78.392 10.2088 78.264 10.0808 78.072 10.0808H73.24C73.048 10.0808 72.92 10.2088 72.92 10.4008V13.6648Z" fill="currentColor"/>
<path d="M7.36 7.61684C7.36 7.80884 7.488 7.93684 7.68 7.93684H15.136C15.328 7.93684 15.456 7.80884 15.456 7.61684V6.27284C15.456 6.08084 15.328 5.95284 15.136 5.95284H7.68C7.488 5.95284 7.36 6.08084 7.36 6.27284V7.61684ZM0.704 27.9688C0.256 27.9688 0 27.7128 0 27.2968V1.95284C0 1.53684 0.256 1.28084 0.704 1.28084H22.4C22.848 1.28084 23.104 1.53684 23.104 1.95284V27.2968C23.104 27.7128 22.848 27.9688 22.4 27.9688H21.504C21.056 27.9688 20.8 27.7128 20.8 27.2968V26.9128C20.8 26.7208 20.672 26.5928 20.48 26.5928H2.56C2.368 26.5928 2.24 26.7208 2.24 26.9128V27.2968C2.24 27.7128 1.984 27.9688 1.536 27.9688H0.704ZM2.24 24.3528C2.24 24.5448 2.368 24.6728 2.56 24.6728H20.48C20.672 24.6728 20.8 24.5448 20.8 24.3528V3.52084C20.8 3.32884 20.672 3.20084 20.48 3.20084H2.56C2.368 3.20084 2.24 3.32884 2.24 3.52084V24.3528ZM3.872 12.1608C3.424 12.1608 3.168 11.9048 3.168 11.4888V11.3928C3.168 10.9768 3.424 10.7208 3.872 10.7208H10.112C10.304 10.7208 10.432 10.5928 10.432 10.4008V9.63284C10.432 9.44084 10.304 9.31284 10.112 9.31284H6.048C5.6 9.31284 5.344 9.05684 5.344 8.64084V5.24884C5.344 4.83284 5.6 4.57684 6.048 4.57684H16.864C17.312 4.57684 17.568 4.83284 17.568 5.24884V8.64084C17.568 9.05684 17.312 9.31284 16.864 9.31284H12.736C12.544 9.31284 12.416 9.44084 12.416 9.63284V10.4008C12.416 10.5928 12.544 10.7208 12.736 10.7208H19.2C19.648 10.7208 19.904 10.9768 19.904 11.3928V11.4888C19.904 11.9048 19.648 12.1608 19.2 12.1608H12.736C12.544 12.1608 12.416 12.2888 12.416 12.4808V13.1208C12.416 13.3128 12.544 13.4408 12.736 13.4408H17.696C18.144 13.4408 18.4 13.6968 18.4 14.1128V22.4328C18.4 22.8488 18.144 23.1048 17.696 23.1048H5.216C4.768 23.1048 4.512 22.8488 4.512 22.4328V14.1128C4.512 13.6968 4.768 13.4408 5.216 13.4408H10.112C10.304 13.4408 10.432 13.3128 10.432 13.1208V12.4808C10.432 12.2888 10.304 12.1608 10.112 12.1608H3.872ZM6.496 21.3768C6.496 21.5688 6.624 21.6968 6.816 21.6968H16.064C16.256 21.6968 16.384 21.5688 16.384 21.3768V15.2008C16.384 15.0088 16.256 14.8808 16.064 14.8808H6.816C6.624 14.8808 6.496 15.0088 6.496 15.2008V21.3768ZM9.024 20.3848C8.576 20.3848 8.32 20.1288 8.32 19.7128V16.8648C8.32 16.4488 8.576 16.1928 9.024 16.1928H13.888C14.336 16.1928 14.592 16.4488 14.592 16.8648V19.7128C14.592 20.1288 14.336 20.3848 13.888 20.3848H9.024ZM9.92 18.8488C9.92 19.0408 10.048 19.1688 10.24 19.1688H12.64C12.832 19.1688 12.96 19.0408 12.96 18.8488V17.7288C12.96 17.5368 12.832 17.4088 12.64 17.4088H10.24C10.048 17.4088 9.92 17.5368 9.92 17.7288V18.8488Z" fill="currentColor"/>
</svg>
