<svg viewBox="0 0 84 28" fill="none" xmlns="http://www.w3.org/2000/svg">
<path d="M80.672 8.19284C81.12 8.19284 81.376 8.44884 81.376 8.86484V15.1688C81.376 15.5848 81.12 15.8408 80.672 15.8408H74.24C74.048 15.8408 73.92 15.9688 73.92 16.1608V18.0808C73.92 18.2728 74.048 18.4008 74.24 18.4008H81.696C82.144 18.4008 82.4 18.6568 82.4 19.0728V27.1688C82.4 27.5848 82.144 27.8408 81.696 27.8408H81.088C80.64 27.8408 80.384 27.6168 80.384 27.2328V26.9448C80.384 26.7528 80.256 26.6248 80.064 26.6248H74.24C74.048 26.6248 73.92 26.7528 73.92 26.9448V27.2968C73.92 27.7128 73.664 27.9688 73.216 27.9688H72.64C72.192 27.9688 71.936 27.7128 71.936 27.2968V8.83284C71.936 8.64084 71.808 8.51284 71.616 8.51284H70.944C70.496 8.51284 70.24 8.25684 70.24 7.84084V6.14484C70.272 6.14484 70.176 6.33684 70.048 6.52884L69.6 7.16884C69.344 7.55284 68.896 7.58484 68.608 7.20084C67.648 6.01684 66.24 4.54484 64.896 3.39284C64.736 3.23284 64.576 3.26484 64.448 3.45684C63.232 5.24884 61.664 6.97684 60.096 8.28884C59.68 8.64084 59.296 8.48084 59.136 8.00084C59.04 7.71284 58.912 7.42484 58.784 7.13684C58.624 6.78484 58.688 6.49684 59.008 6.24084C60.896 4.83284 62.784 2.72084 64.064 0.416844C64.256 0.0328429 64.608 -0.0631578 64.992 0.096842L65.472 0.288843C65.92 0.448843 66.048 0.704844 65.92 0.992842L65.824 1.18484C65.728 1.37684 65.76 1.50484 65.92 1.63284C67.328 2.84884 68.864 4.28884 69.856 5.44084C70.048 5.66484 70.24 5.56884 70.24 5.28084V4.22484C70.24 3.80884 70.496 3.55284 70.944 3.55284H76.064C76.288 3.55284 76.384 3.39284 76.32 3.20084C76.096 2.56084 75.808 1.88884 75.52 1.31284C75.36 0.928843 75.456 0.640843 75.808 0.416844L76.32 0.128844C76.704 -0.0951574 77.088 -0.0311563 77.28 0.352843C77.664 1.08884 78.016 1.88884 78.24 2.52884C78.368 2.91284 78.304 3.16884 78.08 3.32884C77.92 3.42484 78.144 3.55284 78.464 3.55284H82.688C83.136 3.55284 83.392 3.80884 83.392 4.22484V7.84084C83.392 8.25684 83.136 8.51284 82.688 8.51284H82.176C81.728 8.51284 81.472 8.25684 81.472 7.84084V5.76084C81.472 5.56884 81.344 5.44084 81.152 5.44084H72.448C72.256 5.44084 72.128 5.56884 72.128 5.76084V7.87284C72.128 8.06484 72.256 8.19284 72.448 8.19284H80.672ZM59.648 26.0488C59.488 25.6648 59.584 25.4408 59.84 25.1528C60.192 24.8008 60.544 24.2248 60.544 23.3608V9.53684C60.544 9.12084 60.8 8.86484 61.248 8.86484H63.84C64.064 8.86484 64.192 8.73684 64.096 8.51284C63.936 7.93684 63.744 7.32884 63.552 6.81684C63.424 6.43284 63.584 6.11284 64 5.95284L64.448 5.79284C64.832 5.63284 65.216 5.76084 65.344 6.17684C65.664 7.00884 65.92 7.87284 66.08 8.57684C66.112 8.76884 66.24 8.86484 66.432 8.86484H68.416C68.864 8.86484 69.12 9.12084 69.12 9.53684V18.3688C69.12 18.7848 68.864 19.0408 68.416 19.0408H62.912C62.72 19.0408 62.592 19.1688 62.592 19.3608V23.7128C62.592 23.9368 62.752 24.0648 62.976 23.9688L66.016 22.5288C66.176 22.4328 66.24 22.3048 66.176 22.1128C66.112 21.9528 66.048 21.7928 65.984 21.6328L65.696 21.0248C65.536 20.6408 65.664 20.3208 66.048 20.1288L66.432 19.9368C66.848 19.7128 67.168 19.8408 67.36 20.2248C68.128 21.8888 68.992 23.8088 69.504 25.1848C69.632 25.5688 69.504 25.8888 69.184 26.0808L68.672 26.4008C68.256 26.6568 67.872 26.5288 67.712 26.0808C67.552 25.5368 67.328 24.9288 67.072 24.3528C66.976 24.1288 66.848 24.0968 66.624 24.1928C62.976 26.0168 61.6 26.7208 60.96 27.1688C60.672 27.3928 60.448 27.6168 60.32 27.7448C60.224 27.8408 60.16 27.8728 60.16 27.8408C60.32 27.6808 60.288 27.6168 60.16 27.4568C60.096 27.3928 60.032 27.2648 60 27.1368C59.904 26.7848 59.776 26.4008 59.648 26.0488ZM62.592 16.9608C62.592 17.1528 62.72 17.2808 62.912 17.2808H66.784C66.976 17.2808 67.104 17.1528 67.104 16.9608V14.9768C67.104 14.7848 66.976 14.6568 66.784 14.6568H62.912C62.72 14.6568 62.592 14.7848 62.592 14.9768V16.9608ZM62.592 12.6088C62.592 12.8008 62.72 12.9288 62.912 12.9288H66.784C66.976 12.9288 67.104 12.8008 67.104 12.6088V10.9128C67.104 10.7208 66.976 10.5928 66.784 10.5928H62.912C62.72 10.5928 62.592 10.7208 62.592 10.9128V12.6088ZM73.92 24.3208C73.92 24.5128 74.048 24.6408 74.24 24.6408H80.064C80.256 24.6408 80.384 24.5128 80.384 24.3208V20.6728C80.384 20.4808 80.256 20.3528 80.064 20.3528H74.24C74.048 20.3528 73.92 20.4808 73.92 20.6728V24.3208ZM73.92 13.6648C73.92 13.8568 74.048 13.9848 74.24 13.9848H79.072C79.264 13.9848 79.392 13.8568 79.392 13.6648V10.4008C79.392 10.2088 79.264 10.0808 79.072 10.0808H74.24C74.048 10.0808 73.92 10.2088 73.92 10.4008V13.6648Z" fill="currentColor"/>
<path d="M8.36 7.61684C8.36 7.80884 8.488 7.93684 8.68 7.93684H16.136C16.328 7.93684 16.456 7.80884 16.456 7.61684V6.27284C16.456 6.08084 16.328 5.95284 16.136 5.95284H8.68C8.488 5.95284 8.36 6.08084 8.36 6.27284V7.61684ZM1.704 27.9688C1.256 27.9688 1 27.7128 1 27.2968V1.95284C1 1.53684 1.256 1.28084 1.704 1.28084H23.4C23.848 1.28084 24.104 1.53684 24.104 1.95284V27.2968C24.104 27.7128 23.848 27.9688 23.4 27.9688H22.504C22.056 27.9688 21.8 27.7128 21.8 27.2968V26.9128C21.8 26.7208 21.672 26.5928 21.48 26.5928H3.56C3.368 26.5928 3.24 26.7208 3.24 26.9128V27.2968C3.24 27.7128 2.984 27.9688 2.536 27.9688H1.704ZM3.24 24.3528C3.24 24.5448 3.368 24.6728 3.56 24.6728H21.48C21.672 24.6728 21.8 24.5448 21.8 24.3528V3.52084C21.8 3.32884 21.672 3.20084 21.48 3.20084H3.56C3.368 3.20084 3.24 3.32884 3.24 3.52084V24.3528ZM4.872 12.1608C4.424 12.1608 4.168 11.9048 4.168 11.4888V11.3928C4.168 10.9768 4.424 10.7208 4.872 10.7208H11.112C11.304 10.7208 11.432 10.5928 11.432 10.4008V9.63284C11.432 9.44084 11.304 9.31284 11.112 9.31284H7.048C6.6 9.31284 6.344 9.05684 6.344 8.64084V5.24884C6.344 4.83284 6.6 4.57684 7.048 4.57684H17.864C18.312 4.57684 18.568 4.83284 18.568 5.24884V8.64084C18.568 9.05684 18.312 9.31284 17.864 9.31284H13.736C13.544 9.31284 13.416 9.44084 13.416 9.63284V10.4008C13.416 10.5928 13.544 10.7208 13.736 10.7208H20.2C20.648 10.7208 20.904 10.9768 20.904 11.3928V11.4888C20.904 11.9048 20.648 12.1608 20.2 12.1608H13.736C13.544 12.1608 13.416 12.2888 13.416 12.4808V13.1208C13.416 13.3128 13.544 13.4408 13.736 13.4408H18.696C19.144 13.4408 19.4 13.6968 19.4 14.1128V22.4328C19.4 22.8488 19.144 23.1048 18.696 23.1048H6.216C5.768 23.1048 5.512 22.8488 5.512 22.4328V14.1128C5.512 13.6968 5.768 13.4408 6.216 13.4408H11.112C11.304 13.4408 11.432 13.3128 11.432 13.1208V12.4808C11.432 12.2888 11.304 12.1608 11.112 12.1608H4.872ZM7.496 21.3768C7.496 21.5688 7.624 21.6968 7.816 21.6968H17.064C17.256 21.6968 17.384 21.5688 17.384 21.3768V15.2008C17.384 15.0088 17.256 14.8808 17.064 14.8808H7.816C7.624 14.8808 7.496 15.0088 7.496 15.2008V21.3768ZM10.024 20.3848C9.576 20.3848 9.32 20.1288 9.32 19.7128V16.8648C9.32 16.4488 9.576 16.1928 10.024 16.1928H14.888C15.336 16.1928 15.592 16.4488 15.592 16.8648V19.7128C15.592 20.1288 15.336 20.3848 14.888 20.3848H10.024ZM10.92 18.8488C10.92 19.0408 11.048 19.1688 11.24 19.1688H13.64C13.832 19.1688 13.96 19.0408 13.96 18.8488V17.7288C13.96 17.5368 13.832 17.4088 13.64 17.4088H11.24C11.048 17.4088 10.92 17.5368 10.92 17.7288V18.8488Z" fill="currentColor"/>
<path d="M50.9785 20.249C51.2547 20.249 51.4785 20.4729 51.4785 20.749V21.7725C51.4784 21.9165 51.416 22.0536 51.3076 22.1484L50.9082 22.498C50.681 22.6972 50.681 23.0508 50.9082 23.25L51.3076 23.5996C51.416 23.6945 51.4784 23.8315 51.4785 23.9756V25.292C51.4785 25.4246 51.4258 25.5518 51.332 25.6455L49.625 27.3525C49.5312 27.4463 49.4041 27.499 49.2715 27.499H33.9785C33.7024 27.499 33.4785 27.2752 33.4785 26.999V24.999C33.4785 24.7229 33.7024 24.499 33.9785 24.499H34.9785C35.2202 24.499 35.4222 24.6705 35.4688 24.8984L35.4883 25.0996C35.5348 25.3276 35.7368 25.499 35.9785 25.499H48.9785C49.2547 25.499 49.4785 25.2752 49.4785 24.999V24.249C49.4785 23.9729 49.2547 23.749 48.9785 23.749H35.9785C35.7024 23.749 35.4785 23.5252 35.4785 23.249V22.499C35.4785 22.2229 35.7024 21.999 35.9785 21.999H48.9785C49.2547 21.999 49.4785 21.7752 49.4785 21.499V20.249H50.9785Z" fill="currentColor"/>
<path d="M48.9785 18.499C49.2547 18.499 49.4785 18.7229 49.4785 18.999V20.249H33.9785C33.7024 20.249 33.4785 20.0252 33.4785 19.749V18.999C33.4785 18.7229 33.7024 18.499 33.9785 18.499H48.9785Z" fill="currentColor"/>
<path fill-rule="evenodd" clip-rule="evenodd" d="M42.3896 0C42.8376 0 43.0938 0.255875 43.0938 0.671875V1.82422C43.0939 2.01602 43.2222 2.14355 43.4141 2.14355H50.2305C50.678 2.14373 50.9334 2.39983 50.9336 2.81543V5.12012C50.9337 5.31195 51.062 5.43941 51.2539 5.43945H53.5898C54.0378 5.43945 54.2939 5.6963 54.2939 6.1123V6.43164C54.2939 6.84764 54.0378 7.10352 53.5898 7.10352H51.2539C51.062 7.10356 50.9336 7.23188 50.9336 7.42383V9.75977C50.9336 10.1756 50.6782 10.4315 50.2305 10.4316H43.4141C43.2221 10.4316 43.0938 10.56 43.0938 10.752V11.8398C43.0938 12.0318 43.2221 12.1602 43.4141 12.1602H51.7656C52.2136 12.1602 52.4697 12.416 52.4697 12.832V13.0234C52.4697 13.4394 52.2136 13.6963 51.7656 13.6963H43.4141C43.2221 13.6963 43.0939 13.8238 43.0938 14.0156V15.168C43.0938 15.3599 43.2221 15.4883 43.4141 15.4883H53.5898C54.0378 15.4883 54.2939 15.7442 54.2939 16.1602V16.5117C54.2939 16.9277 54.0378 17.1836 53.5898 17.1836H30.4541C30.0061 17.1836 29.75 16.9277 29.75 16.5117V16.1602C29.75 15.7442 30.0061 15.4883 30.4541 15.4883H40.4062C40.5981 15.4882 40.7255 15.3598 40.7256 15.168V14.0156C40.7255 13.8238 40.598 13.6964 40.4062 13.6963H32.2783C31.8303 13.6963 31.5742 13.4394 31.5742 13.0234V12.832C31.5742 12.416 31.8303 12.1602 32.2783 12.1602H40.4062C40.5981 12.16 40.7256 12.0318 40.7256 11.8398V10.752C40.7256 10.56 40.5981 10.4318 40.4062 10.4316H33.0459C32.598 10.4316 32.3418 10.1757 32.3418 9.75977V9.59961C32.3419 9.18379 32.5981 8.92777 33.0459 8.92773H40.4062C40.5981 8.92762 40.7256 8.79934 40.7256 8.60742V7.42383C40.7256 7.23194 40.5981 7.10363 40.4062 7.10352H30.4863C30.0383 7.10352 29.7822 6.84764 29.7822 6.43164V6.1123C29.7822 5.6963 30.0383 5.43945 30.4863 5.43945H40.4062C40.598 5.43934 40.7255 5.3119 40.7256 5.12012V3.96777C40.7255 3.77591 40.5981 3.64757 40.4062 3.64746H33.3662C32.9182 3.64746 32.6621 3.39159 32.6621 2.97559V2.81543C32.6623 2.39969 32.9184 2.14355 33.3662 2.14355H40.4062C40.598 2.14344 40.7254 2.01594 40.7256 1.82422V0.671875C40.7256 0.255971 40.9819 0.000118429 41.4297 0H42.3896ZM43.4141 7.10352C43.2221 7.10352 43.0938 7.23185 43.0938 7.42383V8.60742C43.0938 8.79942 43.2221 8.92773 43.4141 8.92773H48.2783C48.4701 8.92759 48.5977 8.79932 48.5977 8.60742V7.42383C48.5976 7.23196 48.4701 7.10366 48.2783 7.10352H43.4141ZM43.4141 3.64746C43.2221 3.64746 43.0938 3.77583 43.0938 3.96777V5.12012C43.0939 5.31198 43.2221 5.43945 43.4141 5.43945H48.2783C48.4701 5.43931 48.5975 5.31187 48.5977 5.12012V3.96777C48.5976 3.77593 48.4701 3.6476 48.2783 3.64746H43.4141Z" fill="currentColor"/>
</svg>
