<svg viewBox="0 0 100 100" fill="none" xmlns="http://www.w3.org/2000/svg">
<rect width="100" height="100" rx="50" fill="white"/>
<path d="M75.0003 28.95C75.0003 27.5969 75.0003 26.9207 74.7453 26.4C74.5011 25.9016 74.0984 25.4988 73.6 25.2547C73.0796 25 72.4035 25 71.0503 25H28.9503C27.5976 25 26.9207 25 26.4003 25.2551C25.9023 25.4992 25.4996 25.902 25.255 26.4004C25.0003 26.9207 25.0003 27.5973 25.0003 28.9504V71.0504C25.0003 72.4031 25.0003 73.0801 25.255 73.6004C25.4996 74.0984 25.9023 74.5012 26.4003 74.7457C26.9207 75.0004 27.5976 75.0004 28.9503 75.0004H71.0503C72.4035 75.0004 73.0796 75.0004 73.6003 74.7457C74.0988 74.5012 74.5015 74.0984 74.7457 73.6004C75.0007 73.0801 75.0007 72.4031 75.0007 71.0504V28.95H75.0003Z" fill="#0000FF"/>
</svg>
