<svg xmlns="http://www.w3.org/2000/svg" xml:space="preserve" style="fill-rule:evenodd;clip-rule:evenodd;stroke-linejoin:round;stroke-miterlimit:2" viewBox="0 0 100 100">
  <path d="M50 .3c27.6 0 50 22.4 50 50s-22.4 50-50 50-50-22.4-50-50S22.4.3 50 .3" style="fill:#14afeb;fill-rule:nonzero"/>
  <path d="M66.7 41.3c.7 7.5 1.1 11.2 3 13.9.8 1.2 1.9 2.2 3 3 2.8 1.9 6.5 2.2 13.9 2.8l3.2.3v5.4l-3.2.3c-7.4.6-11.1.9-13.9 2.8-1.1.8-2.2 1.8-3 3-1.9 2.7-2.3 6.4-3 13.9h-5.4c-.7-7.5-1.1-11.2-3-13.9-.8-1.2-1.9-2.2-3-3-2.8-1.9-6.5-2.2-13.9-2.8l-3.2-.3v-5.4l3.2-.3c7.4-.6 11.1-.9 13.9-2.8 1.1-.8 2.2-1.8 3-3 1.9-2.7 2.3-6.4 3-13.9z" style="fill:#fff;fill-rule:nonzero" transform="translate(7 7)scale(.67188)"/>
  <path d="M64 14c41.2 0 50 8.8 50 50s-8.8 50-50 50-50-8.8-50-50 8.8-50 50-50m32.7 17.3C84.6 19.2 60.1 24 42.1 42.1 24 60.1 19.2 84.6 31.3 96.7s36.5 7.3 54.6-10.8 22.9-42.5 10.8-54.6" style="fill:#fff" transform="translate(7 7)scale(.67188)"/>
</svg>
