<svg viewBox="0 0 175 86">
  <path d="M146.696 32.233h16.194V14.928h-16.194zm-53.3 7.495c-.926-1.018-.833-1.85.277-2.591 7.403-4.72 10.642-11.382 12.123-19.988h-6.015c-1.48 0-2.869 0-4.164.093-1.203.092-2.036-.463-2.129-1.666v-2.22c0-.833 0-1.666.093-2.314 0-1.203.74-1.573 1.85-1.48 1.481.092 3.24.092 4.812.092h6.478c.185-2.314.37-4.812.463-7.403.092-1.296.832-1.943 2.035-1.943h4.072c1.295 0 2.036.74 1.943 2.036l-.463 7.31h16.564c1.203 0 2.036.555 1.944 1.665 0 .556-.093 1.11-.093 1.574-.925 16.471-1.665 23.226-3.886 25.817-1.666 1.758-3.147 2.406-5.645 2.684-1.11.185-2.776.277-4.812.277h-2.683c-1.203-.092-1.759-.648-1.944-1.85-.185-1.203-.555-2.406-.925-3.61-.463-1.387.092-2.128 1.573-2.035 2.128.092 3.887.185 4.904.185 1.296 0 2.036-.185 2.684-.925 1.11-1.296 1.851-5.645 2.498-16.287h-11.104c-1.758 11.66-5.737 20.636-15.176 26.65-1.11.648-1.943.463-2.498-.462-.74-1.203-1.758-2.498-2.776-3.609m.37 38.773c-.925-1.11-.74-2.036.648-2.499 11.011-3.886 22.301-10.92 29.519-18.6h-14.991a151 151 0 0 0-13.048.556c-1.203 0-2.036-.556-2.036-1.759-.092-.74-.092-1.665-.092-2.59 0-.833 0-1.759.092-2.407 0-1.203.74-1.665 1.944-1.665 2.035.185 4.719.277 7.032.277H129.3v-3.979c0-.74 0-1.573-.093-2.406 0-1.295.278-1.943 1.018-2.035h1.203c2.313 0 5.182.185 6.755.555 1.111.37.925 1.11.37 2.036-.37.647-.555 1.388-.555 2.313v3.516h17.489c5.275 0 10.364-.185 15.546-.555 1.203-.092 2.036.463 2.036 1.666.093.74.093 1.758.093 2.683 0 .926 0 1.851-.093 2.591 0 1.203-.833 1.759-2.036 1.666-3.609-.278-8.698-.463-12.862-.463h-14.806c7.125 7.496 18.322 14.066 29.612 17.582 1.388.463 1.665 1.388.74 2.591a63 63 0 0 0-3.054 3.887c-.648 1.018-1.48 1.295-2.591.832-11.012-4.164-22.208-11.381-30.074-19.987v11.567c0 3.146.093 6.94.278 9.716.092 1.203-.371 2.036-1.481 2.128-.925.093-2.036.093-3.146.093-1.111 0-2.314 0-3.146-.093-1.203-.185-1.574-.925-1.574-2.035.278-2.869.371-6.663.371-9.902v-11.66c-7.866 8.884-19.155 16.565-29.982 20.914q-1.665.694-2.498-.555c-.833-1.296-1.944-2.776-3.054-3.98m44.417-71.068c0-.37.37-.37.648-.37 1.943.185 5.367.37 8.05.37h16.287c2.776 0 6.107-.185 8.143-.37.37 0 .37.185.37.37-.185 1.943-.37 5.367-.37 8.05v8.051c0 5.367.278 12.122.648 16.102 0 .37-.37.37-.648.37-2.036-.185-5.367-.37-8.143-.37h-8.143c-5.46 0-12.215.277-16.194.647 0 0-.278-.925-.093-1.85.093-1.018.093-2.221.093-3.424V23.534c0-5.367-.278-12.122-.648-16.101M71.094 56.764c.37 0 .37.37.37.648a80 80 0 0 0-.37 7.217v7.218c0 4.072.185 7.94.462 11.549.093 1.202-.37 2.034-1.572 2.127-.833.093-1.944.093-3.054.093a29 29 0 0 1-3.146-.184c-.925-.093-1.296-.464-1.203-.926V83.6s-6.723-.285-13.931-.316c-7.296-.03-15.273 0-17.227 0-3.288 0-12.072.801-14.696 1.048a.605.605 0 0 1-.657-.679l.602-4.812a.594.594 0 0 1 .544-.524c6.044-.454 22.44-.454 22.44-.454h22.925v-4.906H36.914c-3.692 0-9.04.173-11.026.242a.755.755 0 0 1-.78-.757v-4.39c0-.428.35-.77.777-.757 2.253.073 8.775.28 11.029.296 2.743.02 25.667 0 25.667 0v-4.627s-26.952.275-41.734 0c-4.217-.078-6.814-.276-7.85-.37a.594.594 0 0 1-.538-.571 77 77 0 0 0-.31-4.611c0-.648.185-.648.37-.648 3.61.37 9.623.648 14.62.648h29.334c4.997 0 11.012-.278 14.621-.648M38.8.502c2.128 0 4.905.185 6.478.555 1.11.278.832 1.11.277 1.943-.185.463-.37.926-.37 1.574v2.684H68.78c1.203 0 1.943.74 1.943 1.942v7.773h5.367c1.203 0 2.314.001 3.517-.091 1.203-.093 1.943.369 2.036 1.479v3.332c-.093 1.203-.833 1.666-2.036 1.574-1.11-.093-2.406-.093-3.517-.093h-5.367v8.05c0 1.203-.74 1.943-1.943 1.943H45.184v4.257h14.992c4.348 0 8.79-.185 13.139-.555 1.202 0 2.036.462 2.128 1.572v3.332c-.092 1.203-.925 1.758-2.128 1.666-3.702-.278-8.883-.462-13.14-.462h-14.99v4.44h18.138c5.46 0 10.92-.184 16.286-.646 1.203 0 2.035.555 2.127 1.758v2.036c0 .647.001 1.388-.091 2.035 0 1.203-.833 1.758-2.036 1.666-5.09-.463-12.215-.648-18.23-.648h-40.16c-6.108 0-12.122.185-18.23.648-1.202.092-1.943-.185-2.035-.833C.86 52.6.86 51.583.86 50.565v-2.036c.092-1.203.925-1.76 2.128-1.667 4.442.37 10.735.555 15.916.555h17.768v-4.44H21.957q-6.524 0-12.77.555c-1.202 0-2.034-.464-2.127-1.574v-3.424c.093-1.203.925-1.666 2.036-1.573 3.608.277 8.605.463 12.861.463h14.715v-4.257H23.068c-3.98 0-7.865.093-11.659.37-1.203.093-2.036-.37-2.129-1.48V28.91c.093-1.202.926-1.664 2.036-1.572 3.331.278 7.865.37 11.751.37h13.605v-4.534H18.904q-8.05 0-15.824.555c-1.203.092-2.035-.463-2.127-1.666v-3.98c.092-1.202.924-1.757 2.127-1.665 4.35.37 10.55.555 15.824.555h17.768v-4.44H23.624c-3.794 0-7.496.09-11.105.369-1.203.092-2.036-.37-2.129-1.388V8.46c.093-1.203.926-1.666 2.036-1.574 3.24.278 7.497.37 11.198.37h13.048V4.113c0-.463-.001-1.019-.093-1.574 0-1.295.277-1.943 1.017-2.036zm6.385 27.205h17.119v-4.533h-17.12zm0-10.734h17.119v-4.44h-17.12z" fill="currentColor"/>
</svg>